<?xml version="1.0" encoding="UTF-8"?>
<svg xmlns="http://www.w3.org/2000/svg" xmlns:xlink="http://www.w3.org/1999/xlink" width="1001" height="1778" viewBox="0 0 1001 1778">
<defs>
<g>
<g id="glyph-0-0">
<path d="M 1.125 -9 L 2.421875 -9 L 2.421875 -3.65625 C 2.421875 -2.71875 2.601562 -2.039062 2.96875 -1.625 C 3.34375 -1.207031 3.941406 -1 4.765625 -1 C 5.578125 -1 6.164062 -1.207031 6.53125 -1.625 C 6.90625 -2.039062 7.09375 -2.71875 7.09375 -3.65625 L 7.09375 -9 L 8.390625 -9 L 8.390625 -3.515625 C 8.390625 -2.359375 8.082031 -1.484375 7.46875 -0.890625 C 6.851562 -0.296875 5.953125 0 4.765625 0 C 3.566406 0 2.660156 -0.296875 2.046875 -0.890625 C 1.429688 -1.484375 1.125 -2.359375 1.125 -3.515625 Z M 1.125 -9 "/>
</g>
<g id="glyph-0-1">
<path d="M 7.140625 -4.28125 L 7.140625 0 L 5.96875 0 L 5.96875 -4.25 C 5.96875 -4.832031 5.835938 -5.269531 5.578125 -5.5625 C 5.316406 -5.851562 4.921875 -6 4.390625 -6 C 3.765625 -6 3.269531 -5.820312 2.90625 -5.46875 C 2.539062 -5.113281 2.359375 -4.628906 2.359375 -4.015625 L 2.359375 0 L 1.1875 0 L 1.1875 -7 L 2.359375 -7 L 2.359375 -6 C 2.640625 -6.332031 2.96875 -6.582031 3.34375 -6.75 C 3.726562 -6.914062 4.164062 -7 4.65625 -7 C 5.476562 -7 6.097656 -6.769531 6.515625 -6.3125 C 6.929688 -5.851562 7.140625 -5.175781 7.140625 -4.28125 Z M 7.140625 -4.28125 "/>
</g>
<g id="glyph-0-2">
<path d="M 1.21875 -7 L 2.390625 -7 L 2.390625 0 L 1.21875 0 Z M 1.21875 -10 L 2.390625 -10 L 2.390625 -9 L 1.21875 -9 Z M 1.21875 -10 "/>
</g>
<g id="glyph-0-3">
<path d="M 2.375 -9 L 2.375 -7 L 4.78125 -7 L 4.78125 -6 L 2.375 -6 L 2.375 -2.3125 C 2.375 -1.75 2.453125 -1.390625 2.609375 -1.234375 C 2.773438 -1.078125 3.101562 -1 3.59375 -1 L 4.78125 -1 L 4.78125 0 L 3.59375 0 C 2.6875 0 2.0625 -0.164062 1.71875 -0.5 C 1.375 -0.832031 1.203125 -1.4375 1.203125 -2.3125 L 1.203125 -6 L 0.34375 -6 L 0.34375 -7 L 1.203125 -7 L 1.203125 -9 Z M 2.375 -9 "/>
</g>
<g id="glyph-0-4">
</g>
<g id="glyph-0-5">
<path d="M 5.75 -6 L 5.75 -5 C 5.414062 -5.332031 5.070312 -5.582031 4.71875 -5.75 C 4.363281 -5.914062 4 -6 3.625 -6 C 3.039062 -6 2.601562 -5.910156 2.3125 -5.734375 C 2.03125 -5.554688 1.890625 -5.289062 1.890625 -4.9375 C 1.890625 -4.664062 1.992188 -4.453125 2.203125 -4.296875 C 2.410156 -4.140625 2.828125 -3.992188 3.453125 -3.859375 L 3.84375 -3.796875 C 4.675781 -3.640625 5.265625 -3.414062 5.609375 -3.125 C 5.960938 -2.832031 6.140625 -2.429688 6.140625 -1.921875 C 6.140625 -1.328125 5.878906 -0.859375 5.359375 -0.515625 C 4.835938 -0.171875 4.117188 0 3.203125 0 C 2.816406 0 2.414062 -0.0820312 2 -0.25 C 1.59375 -0.414062 1.160156 -0.664062 0.703125 -1 L 0.703125 -2 C 1.128906 -1.664062 1.550781 -1.414062 1.96875 -1.25 C 2.394531 -1.082031 2.8125 -1 3.21875 -1 C 3.769531 -1 4.191406 -1.082031 4.484375 -1.25 C 4.785156 -1.425781 4.9375 -1.675781 4.9375 -2 C 4.9375 -2.289062 4.828125 -2.515625 4.609375 -2.671875 C 4.398438 -2.828125 3.9375 -2.976562 3.21875 -3.125 L 2.8125 -3.1875 C 2.082031 -3.332031 1.554688 -3.550781 1.234375 -3.84375 C 0.910156 -4.132812 0.75 -4.535156 0.75 -5.046875 C 0.75 -5.671875 0.984375 -6.148438 1.453125 -6.484375 C 1.929688 -6.828125 2.609375 -7 3.484375 -7 C 3.910156 -7 4.3125 -6.914062 4.6875 -6.75 C 5.070312 -6.582031 5.425781 -6.332031 5.75 -6 Z M 5.75 -6 "/>
</g>
<g id="glyph-0-6">
<path d="M 4.453125 -3 C 3.515625 -3 2.863281 -2.921875 2.5 -2.765625 C 2.132812 -2.609375 1.953125 -2.34375 1.953125 -1.96875 C 1.953125 -1.675781 2.085938 -1.441406 2.359375 -1.265625 C 2.628906 -1.085938 3.003906 -1 3.484375 -1 C 4.128906 -1 4.644531 -1.160156 5.03125 -1.484375 C 5.425781 -1.816406 5.625 -2.253906 5.625 -2.796875 L 5.625 -3 Z M 6.78125 -3.53125 L 6.78125 0 L 5.625 0 L 5.625 -1 C 5.351562 -0.65625 5.019531 -0.398438 4.625 -0.234375 C 4.226562 -0.078125 3.742188 0 3.171875 0 C 2.441406 0 1.859375 -0.171875 1.421875 -0.515625 C 0.992188 -0.867188 0.78125 -1.335938 0.78125 -1.921875 C 0.78125 -2.609375 1.046875 -3.125 1.578125 -3.46875 C 2.117188 -3.820312 2.921875 -4 3.984375 -4 L 5.625 -4 L 5.625 -4.1875 C 5.625 -4.757812 5.445312 -5.203125 5.09375 -5.515625 C 4.738281 -5.835938 4.238281 -6 3.59375 -6 C 3.1875 -6 2.789062 -6 2.40625 -6 C 2.019531 -6 1.648438 -6 1.296875 -6 L 1.296875 -7 C 1.722656 -7 2.132812 -7 2.53125 -7 C 2.9375 -7 3.332031 -7 3.71875 -7 C 4.75 -7 5.515625 -6.710938 6.015625 -6.140625 C 6.523438 -5.566406 6.78125 -4.695312 6.78125 -3.53125 Z M 6.78125 -3.53125 "/>
</g>
<g id="glyph-0-7">
<path d="M 5.34375 -6 C 5.207031 -6 5.0625 -6 4.90625 -6 C 4.757812 -6 4.59375 -6 4.40625 -6 C 3.75 -6 3.242188 -5.800781 2.890625 -5.40625 C 2.535156 -5.019531 2.359375 -4.460938 2.359375 -3.734375 L 2.359375 0 L 1.1875 0 L 1.1875 -7 L 2.359375 -7 L 2.359375 -6 C 2.609375 -6.332031 2.925781 -6.582031 3.3125 -6.75 C 3.707031 -6.914062 4.1875 -7 4.75 -7 C 4.832031 -7 4.921875 -7 5.015625 -7 C 5.109375 -7 5.21875 -7 5.34375 -7 Z M 5.34375 -6 "/>
</g>
<g id="glyph-0-8">
<path d="M 5.765625 -4.421875 C 6.046875 -4.328125 6.316406 -4.128906 6.578125 -3.828125 C 6.835938 -3.523438 7.097656 -3.113281 7.359375 -2.59375 L 8.65625 0 L 7.28125 0 L 6.0625 -2.421875 C 5.75 -3.054688 5.445312 -3.476562 5.15625 -3.6875 C 4.863281 -3.894531 4.460938 -4 3.953125 -4 L 2.5625 -4 L 2.5625 0 L 1.28125 0 L 1.28125 -9 L 4.171875 -9 C 5.253906 -9 6.0625 -8.789062 6.59375 -8.375 C 7.125 -7.96875 7.390625 -7.347656 7.390625 -6.515625 C 7.390625 -5.972656 7.25 -5.519531 6.96875 -5.15625 C 6.695312 -4.800781 6.296875 -4.554688 5.765625 -4.421875 Z M 2.5625 -8 L 2.5625 -5 L 4.171875 -5 C 4.785156 -5 5.25 -5.125 5.5625 -5.375 C 5.882812 -5.632812 6.046875 -6.007812 6.046875 -6.5 C 6.046875 -7 5.882812 -7.375 5.5625 -7.625 C 5.25 -7.875 4.785156 -8 4.171875 -8 Z M 2.5625 -8 "/>
</g>
<g id="glyph-0-9">
<path d="M 7.3125 -3.625 L 7.3125 -3 L 1.9375 -3 C 1.988281 -2.34375 2.226562 -1.84375 2.65625 -1.5 C 3.09375 -1.164062 3.695312 -1 4.46875 -1 C 4.914062 -1 5.347656 -1.082031 5.765625 -1.25 C 6.191406 -1.414062 6.613281 -1.664062 7.03125 -2 L 7.03125 -1 C 6.613281 -0.675781 6.179688 -0.425781 5.734375 -0.25 C 5.296875 -0.0820312 4.851562 0 4.40625 0 C 3.269531 0 2.367188 -0.304688 1.703125 -0.921875 C 1.046875 -1.546875 0.71875 -2.382812 0.71875 -3.4375 C 0.71875 -4.53125 1.03125 -5.394531 1.65625 -6.03125 C 2.289062 -6.675781 3.140625 -7 4.203125 -7 C 5.160156 -7 5.914062 -6.695312 6.46875 -6.09375 C 7.03125 -5.488281 7.3125 -4.664062 7.3125 -3.625 Z M 6.140625 -4 C 6.128906 -4.601562 5.945312 -5.085938 5.59375 -5.453125 C 5.25 -5.816406 4.789062 -6 4.21875 -6 C 3.5625 -6 3.035156 -5.820312 2.640625 -5.46875 C 2.253906 -5.125 2.03125 -4.632812 1.96875 -4 Z M 6.140625 -4 "/>
</g>
<g id="glyph-0-10">
<path d="M 3.984375 -6 C 3.359375 -6 2.863281 -5.773438 2.5 -5.328125 C 2.132812 -4.878906 1.953125 -4.269531 1.953125 -3.5 C 1.953125 -2.726562 2.128906 -2.117188 2.484375 -1.671875 C 2.847656 -1.222656 3.347656 -1 3.984375 -1 C 4.597656 -1 5.085938 -1.222656 5.453125 -1.671875 C 5.816406 -2.117188 6 -2.726562 6 -3.5 C 6 -4.269531 5.816406 -4.878906 5.453125 -5.328125 C 5.085938 -5.773438 4.597656 -6 3.984375 -6 Z M 3.984375 -7 C 5.003906 -7 5.800781 -6.6875 6.375 -6.0625 C 6.957031 -5.445312 7.25 -4.59375 7.25 -3.5 C 7.25 -2.40625 6.957031 -1.546875 6.375 -0.921875 C 5.800781 -0.304688 5.003906 0 3.984375 0 C 2.960938 0 2.160156 -0.304688 1.578125 -0.921875 C 1.003906 -1.546875 0.71875 -2.40625 0.71875 -3.5 C 0.71875 -4.59375 1.003906 -5.445312 1.578125 -6.0625 C 2.160156 -6.6875 2.960938 -7 3.984375 -7 Z M 3.984375 -7 "/>
</g>
<g id="glyph-0-11">
<path d="M 1.21875 -11 L 2.390625 -11 L 2.390625 0 L 1.21875 0 Z M 1.21875 -11 "/>
</g>
<g id="glyph-0-12">
<path d="M 0.390625 -7 L 1.625 -7 L 3.84375 -1.125 L 6.0625 -7 L 7.3125 -7 L 4.640625 0 L 3.046875 0 Z M 0.390625 -7 "/>
</g>
<g id="glyph-0-13">
<path d="M 1.109375 -2.703125 L 1.109375 -7 L 2.265625 -7 L 2.265625 -2.75 C 2.265625 -2.164062 2.394531 -1.726562 2.65625 -1.4375 C 2.914062 -1.144531 3.3125 -1 3.84375 -1 C 4.476562 -1 4.976562 -1.175781 5.34375 -1.53125 C 5.707031 -1.882812 5.890625 -2.367188 5.890625 -2.984375 L 5.890625 -7 L 7.0625 -7 L 7.0625 0 L 5.890625 0 L 5.890625 -1 C 5.609375 -0.664062 5.28125 -0.414062 4.90625 -0.25 C 4.53125 -0.0820312 4.09375 0 3.59375 0 C 2.78125 0 2.160156 -0.226562 1.734375 -0.6875 C 1.316406 -1.144531 1.109375 -1.816406 1.109375 -2.703125 Z M 4.046875 -7 Z M 4.046875 -7 "/>
</g>
<g id="glyph-0-14">
<path d="M 5.90625 -3.5 C 5.90625 -4.289062 5.726562 -4.90625 5.375 -5.34375 C 5.03125 -5.78125 4.539062 -6 3.90625 -6 C 3.28125 -6 2.789062 -5.78125 2.4375 -5.34375 C 2.09375 -4.90625 1.921875 -4.289062 1.921875 -3.5 C 1.921875 -2.707031 2.09375 -2.09375 2.4375 -1.65625 C 2.789062 -1.21875 3.28125 -1 3.90625 -1 C 4.539062 -1 5.03125 -1.21875 5.375 -1.65625 C 5.726562 -2.09375 5.90625 -2.707031 5.90625 -3.5 Z M 7.078125 -0.90625 C 7.078125 0.414062 6.804688 1.394531 6.265625 2.03125 C 5.734375 2.675781 4.910156 3 3.796875 3 C 3.390625 3 3.003906 2.914062 2.640625 2.75 C 2.273438 2.59375 1.921875 2.34375 1.578125 2 L 1.578125 1 C 1.921875 1.34375 2.257812 1.59375 2.59375 1.75 C 2.925781 1.914062 3.265625 2 3.609375 2 C 4.378906 2 4.953125 1.773438 5.328125 1.328125 C 5.710938 0.878906 5.90625 0.207031 5.90625 -0.6875 L 5.90625 -1 C 5.664062 -0.664062 5.359375 -0.414062 4.984375 -0.25 C 4.609375 -0.0820312 4.15625 0 3.625 0 C 2.75 0 2.046875 -0.316406 1.515625 -0.953125 C 0.984375 -1.597656 0.71875 -2.445312 0.71875 -3.5 C 0.71875 -4.550781 0.984375 -5.394531 1.515625 -6.03125 C 2.046875 -6.675781 2.75 -7 3.625 -7 C 4.15625 -7 4.609375 -6.914062 4.984375 -6.75 C 5.359375 -6.582031 5.664062 -6.332031 5.90625 -6 L 5.90625 -7 L 7.078125 -7 Z M 7.078125 -0.90625 "/>
</g>
<g id="glyph-0-15">
<path d="M 4.1875 0.90625 C 3.851562 1.769531 3.53125 2.332031 3.21875 2.59375 C 2.90625 2.863281 2.488281 3 1.96875 3 L 1.03125 3 L 1.03125 2 L 1.71875 2 C 2.039062 2 2.285156 1.910156 2.453125 1.734375 C 2.628906 1.554688 2.828125 1.140625 3.046875 0.484375 L 3.265625 -0.046875 L 0.390625 -7 L 1.625 -7 L 3.84375 -1.53125 L 6.0625 -7 L 7.3125 -7 Z M 4.1875 0.90625 "/>
</g>
<g id="glyph-0-16">
<path d="M 6.34375 -6 L 6.34375 -5 C 6.007812 -5.332031 5.675781 -5.582031 5.34375 -5.75 C 5.019531 -5.914062 4.6875 -6 4.34375 -6 C 3.582031 -6 2.992188 -5.78125 2.578125 -5.34375 C 2.160156 -4.90625 1.953125 -4.289062 1.953125 -3.5 C 1.953125 -2.707031 2.160156 -2.09375 2.578125 -1.65625 C 2.992188 -1.21875 3.582031 -1 4.34375 -1 C 4.6875 -1 5.019531 -1.082031 5.34375 -1.25 C 5.675781 -1.414062 6.007812 -1.664062 6.34375 -2 L 6.34375 -1 C 6.019531 -0.664062 5.679688 -0.414062 5.328125 -0.25 C 4.984375 -0.0820312 4.613281 0 4.21875 0 C 3.144531 0 2.289062 -0.3125 1.65625 -0.9375 C 1.03125 -1.570312 0.71875 -2.425781 0.71875 -3.5 C 0.71875 -4.582031 1.035156 -5.4375 1.671875 -6.0625 C 2.304688 -6.6875 3.179688 -7 4.296875 -7 C 4.648438 -7 5 -6.914062 5.34375 -6.75 C 5.6875 -6.582031 6.019531 -6.332031 6.34375 -6 Z M 6.34375 -6 "/>
</g>
<g id="glyph-0-17">
<path d="M 7.140625 -7 L 4.5625 -3.59375 L 7.265625 0 L 5.890625 0 L 3.828125 -2.75 L 1.75 0 L 0.375 0 L 3.140625 -3.65625 L 0.609375 -7 L 1.984375 -7 L 3.875 -4.5 L 5.765625 -7 Z M 7.140625 -7 "/>
</g>
<g id="glyph-0-18">
<path d="M 5.90625 -6 L 5.90625 -11 L 7.078125 -11 L 7.078125 0 L 5.90625 0 L 5.90625 -1 C 5.65625 -0.664062 5.34375 -0.414062 4.96875 -0.25 C 4.601562 -0.0820312 4.15625 0 3.625 0 C 2.769531 0 2.070312 -0.316406 1.53125 -0.953125 C 0.988281 -1.597656 0.71875 -2.445312 0.71875 -3.5 C 0.71875 -4.550781 0.988281 -5.394531 1.53125 -6.03125 C 2.070312 -6.675781 2.769531 -7 3.625 -7 C 4.15625 -7 4.601562 -6.914062 4.96875 -6.75 C 5.34375 -6.582031 5.65625 -6.332031 5.90625 -6 Z M 1.921875 -3.5 C 1.921875 -2.71875 2.097656 -2.101562 2.453125 -1.65625 C 2.804688 -1.21875 3.289062 -1 3.90625 -1 C 4.53125 -1 5.019531 -1.21875 5.375 -1.65625 C 5.726562 -2.101562 5.90625 -2.71875 5.90625 -3.5 C 5.90625 -4.28125 5.726562 -4.890625 5.375 -5.328125 C 5.019531 -5.773438 4.53125 -6 3.90625 -6 C 3.289062 -6 2.804688 -5.773438 2.453125 -5.328125 C 2.097656 -4.890625 1.921875 -4.28125 1.921875 -3.5 Z M 1.921875 -3.5 "/>
</g>
<g id="glyph-0-19">
<path d="M 4.03125 -11 C 3.46875 -9.988281 3.046875 -8.988281 2.765625 -8 C 2.492188 -7.019531 2.359375 -6.019531 2.359375 -5 C 2.359375 -3.988281 2.492188 -2.984375 2.765625 -1.984375 C 3.046875 -0.992188 3.46875 0 4.03125 1 L 3.015625 1 C 2.378906 -0.03125 1.90625 -1.039062 1.59375 -2.03125 C 1.28125 -3.03125 1.125 -4.019531 1.125 -5 C 1.125 -5.976562 1.28125 -6.960938 1.59375 -7.953125 C 1.90625 -8.953125 2.378906 -9.96875 3.015625 -11 Z M 4.03125 -11 "/>
</g>
<g id="glyph-0-20">
<path d="M 7.140625 -4.28125 L 7.140625 0 L 5.96875 0 L 5.96875 -4.25 C 5.96875 -4.832031 5.835938 -5.269531 5.578125 -5.5625 C 5.316406 -5.851562 4.921875 -6 4.390625 -6 C 3.765625 -6 3.269531 -5.820312 2.90625 -5.46875 C 2.539062 -5.113281 2.359375 -4.628906 2.359375 -4.015625 L 2.359375 0 L 1.1875 0 L 1.1875 -11 L 2.359375 -11 L 2.359375 -6 C 2.640625 -6.332031 2.96875 -6.582031 3.34375 -6.75 C 3.726562 -6.914062 4.164062 -7 4.65625 -7 C 5.476562 -7 6.097656 -6.769531 6.515625 -6.3125 C 6.929688 -5.851562 7.140625 -5.175781 7.140625 -4.28125 Z M 7.140625 -4.28125 "/>
</g>
<g id="glyph-0-21">
<path d="M 1.046875 -11 L 2.0625 -11 C 2.695312 -9.96875 3.171875 -8.953125 3.484375 -7.953125 C 3.796875 -6.960938 3.953125 -5.976562 3.953125 -5 C 3.953125 -4.019531 3.796875 -3.03125 3.484375 -2.03125 C 3.171875 -1.039062 2.695312 -0.03125 2.0625 1 L 1.046875 1 C 1.609375 0 2.023438 -0.992188 2.296875 -1.984375 C 2.578125 -2.984375 2.71875 -3.988281 2.71875 -5 C 2.71875 -6.019531 2.578125 -7.019531 2.296875 -8 C 2.023438 -8.988281 1.609375 -9.988281 1.046875 -11 Z M 1.046875 -11 "/>
</g>
<g id="glyph-0-22">
<path d="M 2.5625 -8 L 2.5625 -4 L 4.171875 -4 C 4.765625 -4 5.222656 -4.171875 5.546875 -4.515625 C 5.878906 -4.867188 6.046875 -5.363281 6.046875 -6 C 6.046875 -6.632812 5.878906 -7.125 5.546875 -7.46875 C 5.222656 -7.820312 4.765625 -8 4.171875 -8 Z M 1.28125 -9 L 4.171875 -9 C 5.234375 -9 6.035156 -8.742188 6.578125 -8.234375 C 7.117188 -7.722656 7.390625 -6.976562 7.390625 -6 C 7.390625 -5.007812 7.117188 -4.257812 6.578125 -3.75 C 6.035156 -3.25 5.234375 -3 4.171875 -3 L 2.5625 -3 L 2.5625 0 L 1.28125 0 Z M 1.28125 -9 "/>
</g>
<g id="glyph-0-23">
<path d="M 5.984375 -9 L 5.984375 -5 L 9.515625 -5 L 9.515625 -4 L 5.984375 -4 L 5.984375 0 L 4.90625 0 L 4.90625 -4 L 1.375 -4 L 1.375 -5 L 4.90625 -5 L 4.90625 -9 Z M 5.984375 -9 "/>
</g>
<g id="glyph-0-24">
<path d="M 4.828125 -11 L 4.828125 -10 L 3.703125 -10 C 3.285156 -10 2.992188 -9.859375 2.828125 -9.578125 C 2.671875 -9.296875 2.59375 -8.785156 2.59375 -8.046875 L 2.59375 -7 L 4.515625 -7 L 4.515625 -6 L 2.59375 -6 L 2.59375 0 L 1.421875 0 L 1.421875 -6 L 0.296875 -6 L 0.296875 -7 L 1.421875 -7 L 1.421875 -7.828125 C 1.421875 -8.929688 1.601562 -9.734375 1.96875 -10.234375 C 2.332031 -10.742188 2.914062 -11 3.71875 -11 Z M 4.828125 -11 "/>
</g>
<g id="glyph-0-25">
<path d="M 0.546875 -7 L 1.71875 -7 L 3.171875 -1.53125 L 4.625 -7 L 6 -7 L 7.46875 -1.53125 L 8.921875 -7 L 10.09375 -7 L 8.234375 0 L 6.84375 0 L 5.3125 -5.734375 L 3.78125 0 L 2.40625 0 Z M 0.546875 -7 "/>
</g>
<g id="glyph-0-26">
<path d="M 6.328125 -3.5 C 6.328125 -4.28125 6.148438 -4.890625 5.796875 -5.328125 C 5.441406 -5.773438 4.957031 -6 4.34375 -6 C 3.726562 -6 3.242188 -5.773438 2.890625 -5.328125 C 2.535156 -4.890625 2.359375 -4.28125 2.359375 -3.5 C 2.359375 -2.71875 2.535156 -2.101562 2.890625 -1.65625 C 3.242188 -1.21875 3.726562 -1 4.34375 -1 C 4.957031 -1 5.441406 -1.21875 5.796875 -1.65625 C 6.148438 -2.101562 6.328125 -2.71875 6.328125 -3.5 Z M 2.359375 -6 C 2.609375 -6.332031 2.914062 -6.582031 3.28125 -6.75 C 3.65625 -6.914062 4.101562 -7 4.625 -7 C 5.488281 -7 6.191406 -6.675781 6.734375 -6.03125 C 7.273438 -5.394531 7.546875 -4.550781 7.546875 -3.5 C 7.546875 -2.445312 7.273438 -1.597656 6.734375 -0.953125 C 6.191406 -0.316406 5.488281 0 4.625 0 C 4.101562 0 3.65625 -0.0820312 3.28125 -0.25 C 2.914062 -0.414062 2.609375 -0.664062 2.359375 -1 L 2.359375 0 L 1.1875 0 L 1.1875 -11 L 2.359375 -11 Z M 2.359375 -6 "/>
</g>
<g id="glyph-0-27">
<path d="M 0.640625 -4 L 4.0625 -4 L 4.0625 -3 L 0.640625 -3 Z M 0.640625 -4 "/>
</g>
<g id="glyph-0-28">
<path d="M 8.375 -8 L 8.375 -7 C 7.945312 -7.332031 7.488281 -7.582031 7 -7.75 C 6.507812 -7.914062 5.988281 -8 5.4375 -8 C 4.351562 -8 3.519531 -7.695312 2.9375 -7.09375 C 2.363281 -6.5 2.078125 -5.632812 2.078125 -4.5 C 2.078125 -3.363281 2.363281 -2.492188 2.9375 -1.890625 C 3.519531 -1.296875 4.351562 -1 5.4375 -1 C 5.988281 -1 6.507812 -1.082031 7 -1.25 C 7.488281 -1.414062 7.945312 -1.664062 8.375 -2 L 8.375 -1 C 7.925781 -0.664062 7.453125 -0.414062 6.953125 -0.25 C 6.453125 -0.0820312 5.921875 0 5.359375 0 C 3.921875 0 2.789062 -0.398438 1.96875 -1.203125 C 1.144531 -2.003906 0.734375 -3.101562 0.734375 -4.5 C 0.734375 -5.894531 1.144531 -6.992188 1.96875 -7.796875 C 2.789062 -8.597656 3.921875 -9 5.359375 -9 C 5.929688 -9 6.46875 -8.914062 6.96875 -8.75 C 7.46875 -8.582031 7.9375 -8.332031 8.375 -8 Z M 8.375 -8 "/>
</g>
<g id="glyph-1-0">
<path d="M 4.515625 -5 C 4.398438 -5 4.273438 -5 4.140625 -5 C 4.015625 -5 3.875 -5 3.71875 -5 C 3.164062 -5 2.738281 -4.835938 2.4375 -4.515625 C 2.144531 -4.191406 2 -3.726562 2 -3.125 L 2 0 L 1 0 L 1 -6 L 2 -6 L 2 -5 C 2.207031 -5.332031 2.472656 -5.582031 2.796875 -5.75 C 3.128906 -5.914062 3.535156 -6 4.015625 -6 C 4.078125 -6 4.148438 -6 4.234375 -6 C 4.316406 -6 4.410156 -6 4.515625 -6 Z M 4.515625 -5 "/>
</g>
<g id="glyph-1-1">
<path d="M 6.1875 -3.625 L 6.1875 -3 L 1.640625 -3 C 1.679688 -2.34375 1.882812 -1.84375 2.25 -1.5 C 2.625 -1.164062 3.132812 -1 3.78125 -1 C 4.164062 -1 4.535156 -1 4.890625 -1 C 5.242188 -1 5.597656 -1 5.953125 -1 L 5.953125 0 C 5.597656 0 5.234375 0 4.859375 0 C 4.484375 0 4.109375 0 3.734375 0 C 2.773438 0 2.015625 -0.265625 1.453125 -0.796875 C 0.890625 -1.328125 0.609375 -2.046875 0.609375 -2.953125 C 0.609375 -3.890625 0.875 -4.628906 1.40625 -5.171875 C 1.9375 -5.722656 2.65625 -6 3.5625 -6 C 4.375 -6 5.015625 -5.785156 5.484375 -5.359375 C 5.953125 -4.929688 6.1875 -4.351562 6.1875 -3.625 Z M 5.1875 -4 C 5.1875 -4.300781 5.035156 -4.539062 4.734375 -4.71875 C 4.441406 -4.90625 4.050781 -5 3.5625 -5 C 3.007812 -5 2.566406 -4.910156 2.234375 -4.734375 C 1.910156 -4.554688 1.722656 -4.3125 1.671875 -4 Z M 5.1875 -4 "/>
</g>
<g id="glyph-1-2">
<path d="M 6.03125 -3.578125 L 6.03125 0 L 5.046875 0 L 5.046875 -3.546875 C 5.046875 -4.035156 4.9375 -4.398438 4.71875 -4.640625 C 4.5 -4.878906 4.164062 -5 3.71875 -5 C 3.1875 -5 2.765625 -4.847656 2.453125 -4.546875 C 2.148438 -4.253906 2 -3.851562 2 -3.34375 L 2 0 L 1 0 L 1 -6 L 2 -6 L 2 -5 C 2.238281 -5.332031 2.515625 -5.582031 2.828125 -5.75 C 3.148438 -5.914062 3.519531 -6 3.9375 -6 C 4.625 -6 5.144531 -5.789062 5.5 -5.375 C 5.851562 -4.96875 6.03125 -4.367188 6.03125 -3.578125 Z M 6.03125 -3.578125 "/>
</g>
<g id="glyph-1-3">
<path d="M 5 -5 L 5 -9 L 5.984375 -9 L 5.984375 0 L 5 0 L 5 -1 C 4.789062 -0.664062 4.523438 -0.414062 4.203125 -0.25 C 3.890625 -0.0820312 3.515625 0 3.078125 0 C 2.347656 0 1.753906 -0.273438 1.296875 -0.828125 C 0.835938 -1.378906 0.609375 -2.101562 0.609375 -3 C 0.609375 -3.894531 0.835938 -4.617188 1.296875 -5.171875 C 1.753906 -5.722656 2.347656 -6 3.078125 -6 C 3.515625 -6 3.890625 -5.914062 4.203125 -5.75 C 4.523438 -5.582031 4.789062 -5.332031 5 -5 Z M 1.625 -3 C 1.625 -2.375 1.773438 -1.882812 2.078125 -1.53125 C 2.378906 -1.175781 2.789062 -1 3.3125 -1 C 3.832031 -1 4.242188 -1.175781 4.546875 -1.53125 C 4.847656 -1.882812 5 -2.375 5 -3 C 5 -3.625 4.847656 -4.113281 4.546875 -4.46875 C 4.242188 -4.820312 3.832031 -5 3.3125 -5 C 2.789062 -5 2.378906 -4.820312 2.078125 -4.46875 C 1.773438 -4.113281 1.625 -3.625 1.625 -3 Z M 1.625 -3 "/>
</g>
<g id="glyph-1-4">
</g>
<g id="glyph-1-5">
<path d="M 3.765625 -3 C 2.972656 -3 2.421875 -2.921875 2.109375 -2.765625 C 1.804688 -2.609375 1.65625 -2.34375 1.65625 -1.96875 C 1.65625 -1.675781 1.769531 -1.441406 2 -1.265625 C 2.226562 -1.085938 2.539062 -1 2.9375 -1 C 3.488281 -1 3.925781 -1.160156 4.25 -1.484375 C 4.582031 -1.816406 4.75 -2.253906 4.75 -2.796875 L 4.75 -3 Z M 5.734375 -3.53125 L 5.734375 0 L 4.75 0 L 4.75 -1 C 4.519531 -0.65625 4.238281 -0.398438 3.90625 -0.234375 C 3.570312 -0.078125 3.160156 0 2.671875 0 C 2.054688 0 1.566406 -0.171875 1.203125 -0.515625 C 0.835938 -0.867188 0.65625 -1.335938 0.65625 -1.921875 C 0.65625 -2.609375 0.878906 -3.125 1.328125 -3.46875 C 1.785156 -3.820312 2.46875 -4 3.375 -4 L 4.75 -4 L 4.75 -4.09375 C 4.75 -4.382812 4.597656 -4.609375 4.296875 -4.765625 C 4.003906 -4.921875 3.585938 -5 3.046875 -5 C 2.703125 -5 2.363281 -5 2.03125 -5 C 1.707031 -5 1.394531 -5 1.09375 -5 L 1.09375 -6 C 1.457031 -6 1.804688 -6 2.140625 -6 C 2.484375 -6 2.816406 -6 3.140625 -6 C 4.015625 -6 4.664062 -5.796875 5.09375 -5.390625 C 5.519531 -4.984375 5.734375 -4.363281 5.734375 -3.53125 Z M 5.734375 -3.53125 "/>
</g>
<g id="glyph-1-6">
<path d="M 2.015625 -8 L 2.015625 -6 L 4.046875 -6 L 4.046875 -5 L 2.015625 -5 L 2.015625 -2.046875 C 2.015625 -1.597656 2.082031 -1.3125 2.21875 -1.1875 C 2.351562 -1.0625 2.625 -1 3.03125 -1 L 4.046875 -1 L 4.046875 0 L 3.03125 0 C 2.269531 0 1.742188 -0.144531 1.453125 -0.4375 C 1.160156 -0.726562 1.015625 -1.265625 1.015625 -2.046875 L 1.015625 -5 L 0.296875 -5 L 0.296875 -6 L 1.015625 -6 L 1.015625 -8 Z M 2.015625 -8 "/>
</g>
<g id="glyph-1-7">
<path d="M 5.71875 -4.78125 C 5.96875 -5.195312 6.265625 -5.503906 6.609375 -5.703125 C 6.953125 -5.898438 7.351562 -6 7.8125 -6 C 8.445312 -6 8.929688 -5.785156 9.265625 -5.359375 C 9.609375 -4.941406 9.78125 -4.347656 9.78125 -3.578125 L 9.78125 0 L 8.78125 0 L 8.78125 -3.546875 C 8.78125 -4.035156 8.675781 -4.398438 8.46875 -4.640625 C 8.269531 -4.878906 7.960938 -5 7.546875 -5 C 7.035156 -5 6.628906 -4.847656 6.328125 -4.546875 C 6.035156 -4.253906 5.890625 -3.851562 5.890625 -3.34375 L 5.890625 0 L 4.890625 0 L 4.890625 -3.546875 C 4.890625 -4.046875 4.785156 -4.410156 4.578125 -4.640625 C 4.378906 -4.878906 4.066406 -5 3.640625 -5 C 3.140625 -5 2.738281 -4.847656 2.4375 -4.546875 C 2.144531 -4.253906 2 -3.851562 2 -3.34375 L 2 0 L 1 0 L 1 -6 L 2 -6 L 2 -5 C 2.226562 -5.34375 2.5 -5.59375 2.8125 -5.75 C 3.125 -5.914062 3.492188 -6 3.921875 -6 C 4.359375 -6 4.726562 -5.894531 5.03125 -5.6875 C 5.34375 -5.476562 5.570312 -5.175781 5.71875 -4.78125 Z M 5.71875 -4.78125 "/>
</g>
<g id="glyph-1-8">
<path d="M 2 -1 L 2 2 L 1 2 L 1 -6 L 2 -6 L 2 -5 C 2.207031 -5.332031 2.46875 -5.582031 2.78125 -5.75 C 3.101562 -5.914062 3.484375 -6 3.921875 -6 C 4.648438 -6 5.238281 -5.722656 5.6875 -5.171875 C 6.144531 -4.617188 6.375 -3.894531 6.375 -3 C 6.375 -2.101562 6.144531 -1.378906 5.6875 -0.828125 C 5.238281 -0.273438 4.648438 0 3.921875 0 C 3.484375 0 3.101562 -0.0820312 2.78125 -0.25 C 2.46875 -0.414062 2.207031 -0.664062 2 -1 Z M 5.359375 -3 C 5.359375 -3.625 5.207031 -4.113281 4.90625 -4.46875 C 4.613281 -4.820312 4.203125 -5 3.671875 -5 C 3.148438 -5 2.738281 -4.820312 2.4375 -4.46875 C 2.144531 -4.113281 2 -3.625 2 -3 C 2 -2.375 2.144531 -1.882812 2.4375 -1.53125 C 2.738281 -1.175781 3.148438 -1 3.671875 -1 C 4.203125 -1 4.613281 -1.175781 4.90625 -1.53125 C 5.207031 -1.882812 5.359375 -2.375 5.359375 -3 Z M 5.359375 -3 "/>
</g>
<g id="glyph-1-9">
<path d="M 1.359375 -1 L 3.140625 -1 L 3.140625 -7 L 1.203125 -7 L 1.203125 -8 L 4.21875 -8 L 4.21875 -1 L 5.984375 -1 L 5.984375 0 L 1.359375 0 Z M 1.359375 -1 "/>
</g>
<g id="glyph-1-10">
<path d="M 4.9375 -1 L 6.0625 -1 L 6.0625 0 L 4.9375 0 Z M 8.59375 -1 L 9.734375 -1 L 9.734375 0 L 8.59375 0 Z M 1.265625 -1 L 2.40625 -1 L 2.40625 0 L 1.265625 0 Z M 1.265625 -1 "/>
</g>
<g id="glyph-1-11">
<path d="M 6.03125 -6 L 3.859375 -3.078125 L 6.15625 0 L 4.984375 0 L 3.234375 -2.359375 L 1.484375 0 L 0.3125 0 L 2.65625 -3.140625 L 0.515625 -6 L 1.6875 -6 L 3.28125 -3.859375 L 4.875 -6 Z M 6.03125 -6 "/>
</g>
<g id="glyph-1-12">
<path d="M 5.609375 2 L 5.609375 3 L -0.109375 3 L -0.109375 2 Z M 5.609375 2 "/>
</g>
<g id="glyph-1-13">
<path d="M 0.328125 -6 L 1.375 -6 L 3.25 -0.96875 L 5.140625 -6 L 6.1875 -6 L 3.921875 0 L 2.578125 0 Z M 0.328125 -6 "/>
</g>
<g id="glyph-1-14">
<path d="M 1.03125 -6 L 2.03125 -6 L 2.03125 0 L 1.03125 0 Z M 1.03125 -8 L 2.03125 -8 L 2.03125 -7 L 1.03125 -7 Z M 1.03125 -8 "/>
</g>
<g id="glyph-1-15">
<path d="M 4.875 -6 L 4.875 -5 C 4.59375 -5 4.300781 -5 4 -5 C 3.695312 -5 3.382812 -5 3.0625 -5 C 2.570312 -5 2.203125 -4.9375 1.953125 -4.8125 C 1.710938 -4.6875 1.59375 -4.5 1.59375 -4.25 C 1.59375 -4.050781 1.679688 -3.894531 1.859375 -3.78125 C 2.035156 -3.675781 2.390625 -3.578125 2.921875 -3.484375 L 3.25 -3.40625 C 3.945312 -3.257812 4.441406 -3.054688 4.734375 -2.796875 C 5.035156 -2.546875 5.1875 -2.1875 5.1875 -1.71875 C 5.1875 -1.1875 4.960938 -0.765625 4.515625 -0.453125 C 4.078125 -0.148438 3.472656 0 2.703125 0 C 2.378906 0 2.039062 0 1.6875 0 C 1.34375 0 0.976562 0 0.59375 0 L 0.59375 -1 C 0.957031 -1 1.316406 -1 1.671875 -1 C 2.023438 -1 2.375 -1 2.71875 -1 C 3.1875 -1 3.546875 -1.0625 3.796875 -1.1875 C 4.046875 -1.3125 4.171875 -1.484375 4.171875 -1.703125 C 4.171875 -1.910156 4.078125 -2.066406 3.890625 -2.171875 C 3.710938 -2.285156 3.320312 -2.394531 2.71875 -2.5 L 2.375 -2.59375 C 1.757812 -2.71875 1.316406 -2.910156 1.046875 -3.171875 C 0.773438 -3.441406 0.640625 -3.800781 0.640625 -4.25 C 0.640625 -4.8125 0.835938 -5.242188 1.234375 -5.546875 C 1.640625 -5.847656 2.210938 -6 2.953125 -6 C 3.316406 -6 3.660156 -6 3.984375 -6 C 4.304688 -6 4.601562 -6 4.875 -6 Z M 4.875 -6 "/>
</g>
<g id="glyph-1-16">
<path d="M 5.359375 -6 L 5.359375 -5 C 5.078125 -5 4.796875 -5 4.515625 -5 C 4.242188 -5 3.960938 -5 3.671875 -5 C 3.035156 -5 2.539062 -4.820312 2.1875 -4.46875 C 1.832031 -4.125 1.65625 -3.632812 1.65625 -3 C 1.65625 -2.363281 1.832031 -1.867188 2.1875 -1.515625 C 2.539062 -1.171875 3.035156 -1 3.671875 -1 C 3.960938 -1 4.242188 -1 4.515625 -1 C 4.796875 -1 5.078125 -1 5.359375 -1 L 5.359375 0 C 5.085938 0 4.800781 0 4.5 0 C 4.207031 0 3.894531 0 3.5625 0 C 2.65625 0 1.9375 -0.269531 1.40625 -0.8125 C 0.875 -1.351562 0.609375 -2.082031 0.609375 -3 C 0.609375 -3.925781 0.875 -4.65625 1.40625 -5.1875 C 1.945312 -5.726562 2.6875 -6 3.625 -6 C 3.925781 -6 4.222656 -6 4.515625 -6 C 4.804688 -6 5.085938 -6 5.359375 -6 Z M 5.359375 -6 "/>
</g>
<g id="glyph-1-17">
<path d="M 6.03125 -3.578125 L 6.03125 0 L 5.046875 0 L 5.046875 -3.546875 C 5.046875 -4.035156 4.9375 -4.398438 4.71875 -4.640625 C 4.5 -4.878906 4.164062 -5 3.71875 -5 C 3.1875 -5 2.765625 -4.847656 2.453125 -4.546875 C 2.148438 -4.253906 2 -3.851562 2 -3.34375 L 2 0 L 1 0 L 1 -9 L 2 -9 L 2 -5 C 2.238281 -5.332031 2.515625 -5.582031 2.828125 -5.75 C 3.148438 -5.914062 3.519531 -6 3.9375 -6 C 4.625 -6 5.144531 -5.789062 5.5 -5.375 C 5.851562 -4.96875 6.03125 -4.367188 6.03125 -3.578125 Z M 6.03125 -3.578125 "/>
</g>
<g id="glyph-1-18">
<path d="M 2.09375 -1 L 3.1875 -1 L 3.1875 0 L 2.09375 0 Z M 3.15625 -2 L 2.125 -2 L 2.125 -2.9375 C 2.125 -3.351562 2.175781 -3.691406 2.28125 -3.953125 C 2.382812 -4.210938 2.597656 -4.519531 2.921875 -4.875 L 3.40625 -5.421875 C 3.613281 -5.566406 3.757812 -5.703125 3.84375 -5.828125 C 3.9375 -5.953125 3.984375 -6.078125 3.984375 -6.203125 C 3.984375 -6.441406 3.863281 -6.632812 3.625 -6.78125 C 3.394531 -6.925781 3.085938 -7 2.703125 -7 C 2.421875 -7 2.117188 -7 1.796875 -7 C 1.472656 -7 1.140625 -7 0.796875 -7 L 0.796875 -8 C 1.128906 -8 1.46875 -8 1.8125 -8 C 2.164062 -8 2.523438 -8 2.890625 -8 C 3.546875 -8 4.070312 -7.84375 4.46875 -7.53125 C 4.875 -7.21875 5.078125 -6.804688 5.078125 -6.296875 C 5.078125 -6.054688 5.007812 -5.828125 4.875 -5.609375 C 4.75 -5.390625 4.523438 -5.140625 4.203125 -4.859375 L 3.734375 -4.328125 C 3.566406 -4.140625 3.445312 -3.988281 3.375 -3.875 C 3.300781 -3.769531 3.25 -3.664062 3.21875 -3.5625 C 3.195312 -3.476562 3.179688 -3.375 3.171875 -3.25 C 3.160156 -3.125 3.15625 -2.957031 3.15625 -2.75 Z M 3.15625 -2 "/>
</g>
<g id="glyph-1-19">
<path d="M 5.890625 -6 L 5.890625 0 L 4.90625 0 L 4.90625 -5 L 2.1875 -5 L 2.1875 0 L 1.203125 0 L 1.203125 -5 L 0.25 -5 L 0.25 -6 L 1.203125 -6 L 1.203125 -6.53125 C 1.203125 -7.375 1.351562 -7.992188 1.65625 -8.390625 C 1.96875 -8.796875 2.445312 -9 3.09375 -9 L 4.078125 -9 L 4.078125 -8 L 3.140625 -8 C 2.773438 -8 2.523438 -7.90625 2.390625 -7.71875 C 2.253906 -7.53125 2.1875 -7.191406 2.1875 -6.703125 L 2.1875 -6 Z M 4.90625 -8 L 5.890625 -8 L 5.890625 -7 L 4.90625 -7 Z M 4.90625 -8 "/>
</g>
<g id="glyph-1-20">
<path d="M 1.03125 -9 L 2.03125 -9 L 2.03125 0 L 1.03125 0 Z M 1.03125 -9 "/>
</g>
<g id="glyph-2-0">
<path d="M 5.625 -2.625 L 5.625 -2 L 1.484375 -2 C 1.523438 -1.675781 1.710938 -1.425781 2.046875 -1.25 C 2.378906 -1.082031 2.84375 -1 3.4375 -1 C 3.78125 -1 4.113281 -1 4.4375 -1 C 4.757812 -1 5.082031 -1 5.40625 -1 L 5.40625 0 C 5.082031 0 4.75 0 4.40625 0 C 4.070312 0 3.734375 0 3.390625 0 C 2.515625 0 1.820312 -0.21875 1.3125 -0.65625 C 0.800781 -1.101562 0.546875 -1.703125 0.546875 -2.453125 C 0.546875 -3.234375 0.785156 -3.851562 1.265625 -4.3125 C 1.753906 -4.769531 2.410156 -5 3.234375 -5 C 3.972656 -5 4.554688 -4.785156 4.984375 -4.359375 C 5.410156 -3.929688 5.625 -3.351562 5.625 -2.625 Z M 4.71875 -3 C 4.71875 -3.300781 4.582031 -3.539062 4.3125 -3.71875 C 4.039062 -3.90625 3.679688 -4 3.234375 -4 C 2.734375 -4 2.332031 -3.910156 2.03125 -3.734375 C 1.726562 -3.554688 1.554688 -3.3125 1.515625 -3 Z M 4.71875 -3 "/>
</g>
<g id="glyph-2-1">
<path d="M 5.484375 -5 L 3.515625 -2.5625 L 5.59375 0 L 4.53125 0 L 2.9375 -1.96875 L 1.34375 0 L 0.28125 0 L 2.40625 -2.609375 L 0.46875 -5 L 1.53125 -5 L 2.984375 -3.21875 L 4.421875 -5 Z M 5.484375 -5 "/>
</g>
<g id="glyph-2-2">
<path d="M 5.484375 -2.859375 L 5.484375 0 L 4.59375 0 L 4.59375 -2.828125 C 4.59375 -3.222656 4.488281 -3.515625 4.28125 -3.703125 C 4.082031 -3.898438 3.78125 -4 3.375 -4 C 2.894531 -4 2.515625 -3.878906 2.234375 -3.640625 C 1.953125 -3.398438 1.8125 -3.078125 1.8125 -2.671875 L 1.8125 0 L 0.90625 0 L 0.90625 -8 L 1.8125 -8 L 1.8125 -4 C 2.03125 -4.332031 2.28125 -4.582031 2.5625 -4.75 C 2.851562 -4.914062 3.191406 -5 3.578125 -5 C 4.203125 -5 4.675781 -4.816406 5 -4.453125 C 5.320312 -4.085938 5.484375 -3.554688 5.484375 -2.859375 Z M 5.484375 -2.859375 "/>
</g>
<g id="glyph-2-3">
<path d="M 3.421875 -2 C 2.703125 -2 2.203125 -1.957031 1.921875 -1.875 C 1.640625 -1.800781 1.5 -1.671875 1.5 -1.484375 C 1.5 -1.335938 1.601562 -1.21875 1.8125 -1.125 C 2.019531 -1.039062 2.304688 -1 2.671875 -1 C 3.171875 -1 3.570312 -1.078125 3.875 -1.234375 C 4.175781 -1.398438 4.328125 -1.617188 4.328125 -1.890625 L 4.328125 -2 Z M 5.21875 -2.53125 L 5.21875 0 L 4.328125 0 L 4.328125 -1 C 4.117188 -0.65625 3.859375 -0.398438 3.546875 -0.234375 C 3.242188 -0.078125 2.875 0 2.4375 0 C 1.875 0 1.425781 -0.128906 1.09375 -0.390625 C 0.757812 -0.648438 0.59375 -1.003906 0.59375 -1.453125 C 0.59375 -1.960938 0.796875 -2.347656 1.203125 -2.609375 C 1.617188 -2.867188 2.238281 -3 3.0625 -3 L 4.328125 -3 L 4.328125 -3.09375 C 4.328125 -3.382812 4.191406 -3.609375 3.921875 -3.765625 C 3.648438 -3.921875 3.265625 -4 2.765625 -4 C 2.453125 -4 2.144531 -4 1.84375 -4 C 1.550781 -4 1.269531 -4 1 -4 L 1 -5 C 1.332031 -5 1.648438 -5 1.953125 -5 C 2.265625 -5 2.566406 -5 2.859375 -5 C 3.648438 -5 4.238281 -4.796875 4.625 -4.390625 C 5.019531 -3.984375 5.21875 -3.363281 5.21875 -2.53125 Z M 5.21875 -2.53125 "/>
</g>
<g id="glyph-2-4">
<path d="M 0.84375 -2.140625 L 0.84375 -5 L 1.75 -5 L 1.75 -2.171875 C 1.75 -1.785156 1.847656 -1.492188 2.046875 -1.296875 C 2.253906 -1.097656 2.554688 -1 2.953125 -1 C 3.441406 -1 3.828125 -1.117188 4.109375 -1.359375 C 4.390625 -1.597656 4.53125 -1.921875 4.53125 -2.328125 L 4.53125 -5 L 5.4375 -5 L 5.4375 0 L 4.53125 0 L 4.53125 -1 C 4.3125 -0.664062 4.054688 -0.414062 3.765625 -0.25 C 3.484375 -0.0820312 3.148438 0 2.765625 0 C 2.140625 0 1.660156 -0.179688 1.328125 -0.546875 C 1.003906 -0.910156 0.84375 -1.441406 0.84375 -2.140625 Z M 3.109375 -5 Z M 3.109375 -5 "/>
</g>
<g id="glyph-2-5">
<path d="M 4.421875 -5 L 4.421875 -4 C 4.171875 -4 3.90625 -4 3.625 -4 C 3.351562 -4 3.070312 -4 2.78125 -4 C 2.34375 -4 2.007812 -3.953125 1.78125 -3.859375 C 1.5625 -3.765625 1.453125 -3.625 1.453125 -3.4375 C 1.453125 -3.289062 1.53125 -3.175781 1.6875 -3.09375 C 1.851562 -3.007812 2.175781 -2.929688 2.65625 -2.859375 L 2.953125 -2.796875 C 3.585938 -2.679688 4.039062 -2.515625 4.3125 -2.296875 C 4.582031 -2.085938 4.71875 -1.789062 4.71875 -1.40625 C 4.71875 -0.976562 4.515625 -0.632812 4.109375 -0.375 C 3.710938 -0.125 3.164062 0 2.46875 0 C 2.175781 0 1.867188 0 1.546875 0 C 1.234375 0 0.898438 0 0.546875 0 L 0.546875 -1 C 0.878906 -1 1.207031 -1 1.53125 -1 C 1.851562 -1 2.171875 -1 2.484375 -1 C 2.898438 -1 3.222656 -1.046875 3.453125 -1.140625 C 3.679688 -1.234375 3.796875 -1.363281 3.796875 -1.53125 C 3.796875 -1.6875 3.710938 -1.804688 3.546875 -1.890625 C 3.378906 -1.972656 3.019531 -2.050781 2.46875 -2.125 L 2.15625 -2.1875 C 1.601562 -2.289062 1.203125 -2.453125 0.953125 -2.671875 C 0.703125 -2.890625 0.578125 -3.1875 0.578125 -3.5625 C 0.578125 -4.019531 0.757812 -4.375 1.125 -4.625 C 1.488281 -4.875 2.003906 -5 2.671875 -5 C 3.003906 -5 3.316406 -5 3.609375 -5 C 3.898438 -5 4.171875 -5 4.421875 -5 Z M 4.421875 -5 "/>
</g>
<g id="glyph-2-6">
<path d="M 1.828125 -7 L 1.828125 -5 L 3.6875 -5 L 3.6875 -4 L 1.828125 -4 L 1.828125 -1.78125 C 1.828125 -1.445312 1.890625 -1.234375 2.015625 -1.140625 C 2.140625 -1.046875 2.390625 -1 2.765625 -1 L 3.6875 -1 L 3.6875 0 L 2.765625 0 C 2.066406 0 1.582031 -0.125 1.3125 -0.375 C 1.050781 -0.632812 0.921875 -1.101562 0.921875 -1.78125 L 0.921875 -4 L 0.265625 -4 L 0.265625 -5 L 0.921875 -5 L 0.921875 -7 Z M 1.828125 -7 "/>
</g>
<g id="glyph-2-7">
<path d="M 4.546875 -4 L 4.546875 -8 L 5.4375 -8 L 5.4375 0 L 4.546875 0 L 4.546875 -1 C 4.359375 -0.664062 4.117188 -0.414062 3.828125 -0.25 C 3.535156 -0.0820312 3.191406 0 2.796875 0 C 2.128906 0 1.585938 -0.226562 1.171875 -0.6875 C 0.753906 -1.144531 0.546875 -1.75 0.546875 -2.5 C 0.546875 -3.25 0.753906 -3.851562 1.171875 -4.3125 C 1.585938 -4.769531 2.128906 -5 2.796875 -5 C 3.191406 -5 3.535156 -4.914062 3.828125 -4.75 C 4.117188 -4.582031 4.359375 -4.332031 4.546875 -4 Z M 1.484375 -2.5 C 1.484375 -2.03125 1.617188 -1.660156 1.890625 -1.390625 C 2.160156 -1.128906 2.535156 -1 3.015625 -1 C 3.484375 -1 3.851562 -1.128906 4.125 -1.390625 C 4.40625 -1.660156 4.546875 -2.03125 4.546875 -2.5 C 4.546875 -2.96875 4.40625 -3.332031 4.125 -3.59375 C 3.851562 -3.863281 3.484375 -4 3.015625 -4 C 2.535156 -4 2.160156 -3.863281 1.890625 -3.59375 C 1.617188 -3.332031 1.484375 -2.96875 1.484375 -2.5 Z M 1.484375 -2.5 "/>
</g>
<g id="glyph-2-8">
<path d="M 3.71875 -8 L 3.71875 -7 L 2.859375 -7 C 2.535156 -7 2.3125 -6.90625 2.1875 -6.71875 C 2.0625 -6.53125 2 -6.191406 2 -5.703125 L 2 -5 L 3.46875 -5 L 3.46875 -4 L 2 -4 L 2 0 L 1.09375 0 L 1.09375 -4 L 0.234375 -4 L 0.234375 -5 L 1.09375 -5 L 1.09375 -5.546875 C 1.09375 -6.398438 1.234375 -7.019531 1.515625 -7.40625 C 1.796875 -7.800781 2.242188 -8 2.859375 -8 Z M 3.71875 -8 "/>
</g>
<g id="glyph-2-9">
<path d="M 0.9375 -5 L 1.84375 -5 L 1.84375 0 L 0.9375 0 Z M 0.9375 -8 L 1.84375 -8 L 1.84375 -7 L 0.9375 -7 Z M 0.9375 -8 "/>
</g>
<g id="glyph-2-10">
<path d="M 0.9375 -8 L 1.84375 -8 L 1.84375 0 L 0.9375 0 Z M 0.9375 -8 "/>
</g>
<g id="glyph-2-11">
<path d="M 4.875 -5 L 4.875 -4 C 4.625 -4 4.367188 -4 4.109375 -4 C 3.859375 -4 3.601562 -4 3.34375 -4 C 2.757812 -4 2.304688 -3.867188 1.984375 -3.609375 C 1.660156 -3.347656 1.5 -2.976562 1.5 -2.5 C 1.5 -2.019531 1.660156 -1.648438 1.984375 -1.390625 C 2.304688 -1.128906 2.757812 -1 3.34375 -1 C 3.601562 -1 3.859375 -1 4.109375 -1 C 4.367188 -1 4.625 -1 4.875 -1 L 4.875 0 C 4.625 0 4.363281 0 4.09375 0 C 3.820312 0 3.535156 0 3.234375 0 C 2.410156 0 1.753906 -0.222656 1.265625 -0.671875 C 0.785156 -1.128906 0.546875 -1.738281 0.546875 -2.5 C 0.546875 -3.28125 0.789062 -3.890625 1.28125 -4.328125 C 1.769531 -4.773438 2.441406 -5 3.296875 -5 C 3.578125 -5 3.847656 -5 4.109375 -5 C 4.367188 -5 4.625 -5 4.875 -5 Z M 4.875 -5 "/>
</g>
<g id="glyph-2-12">
<path d="M 5.484375 -2.859375 L 5.484375 0 L 4.59375 0 L 4.59375 -2.828125 C 4.59375 -3.222656 4.488281 -3.515625 4.28125 -3.703125 C 4.082031 -3.898438 3.78125 -4 3.375 -4 C 2.894531 -4 2.515625 -3.878906 2.234375 -3.640625 C 1.953125 -3.398438 1.8125 -3.078125 1.8125 -2.671875 L 1.8125 0 L 0.90625 0 L 0.90625 -5 L 1.8125 -5 L 1.8125 -4 C 2.03125 -4.332031 2.28125 -4.582031 2.5625 -4.75 C 2.851562 -4.914062 3.191406 -5 3.578125 -5 C 4.203125 -5 4.675781 -4.816406 5 -4.453125 C 5.320312 -4.085938 5.484375 -3.554688 5.484375 -2.859375 Z M 5.484375 -2.859375 "/>
</g>
<g id="glyph-2-13">
<path d="M 3.0625 -4 C 2.582031 -4 2.203125 -3.863281 1.921875 -3.59375 C 1.640625 -3.332031 1.5 -2.96875 1.5 -2.5 C 1.5 -2.03125 1.640625 -1.660156 1.921875 -1.390625 C 2.203125 -1.128906 2.582031 -1 3.0625 -1 C 3.539062 -1 3.921875 -1.132812 4.203125 -1.40625 C 4.484375 -1.675781 4.625 -2.039062 4.625 -2.5 C 4.625 -2.957031 4.484375 -3.320312 4.203125 -3.59375 C 3.921875 -3.863281 3.539062 -4 3.0625 -4 Z M 3.0625 -5 C 3.84375 -5 4.457031 -4.773438 4.90625 -4.328125 C 5.351562 -3.890625 5.578125 -3.28125 5.578125 -2.5 C 5.578125 -1.71875 5.351562 -1.101562 4.90625 -0.65625 C 4.457031 -0.21875 3.84375 0 3.0625 0 C 2.28125 0 1.664062 -0.21875 1.21875 -0.65625 C 0.769531 -1.101562 0.546875 -1.71875 0.546875 -2.5 C 0.546875 -3.28125 0.769531 -3.890625 1.21875 -4.328125 C 1.664062 -4.773438 2.28125 -5 3.0625 -5 Z M 3.0625 -5 "/>
</g>
<g id="glyph-2-14">
<path d="M 3.21875 0.28125 C 2.96875 0.988281 2.722656 1.453125 2.484375 1.671875 C 2.242188 1.890625 1.921875 2 1.515625 2 L 0.796875 2 L 0.796875 1 L 1.3125 1 C 1.5625 1 1.753906 0.953125 1.890625 0.859375 C 2.023438 0.773438 2.175781 0.570312 2.34375 0.25 L 2.515625 -0.125 L 0.296875 -5 L 1.25 -5 L 2.953125 -1.09375 L 4.671875 -5 L 5.625 -5 Z M 3.21875 0.28125 "/>
</g>
</g>
</defs>
<rect x="-100.1" y="-177.8" width="1201.2" height="2133.6" fill="rgb(100%, 98.823529%, 96.862745%)" fill-opacity="1"/>
<path fill-rule="nonzero" fill="rgb(73.72549%, 80%, 100%)" fill-opacity="1" stroke-width="2.5" stroke-linecap="butt" stroke-linejoin="miter" stroke="rgb(4.705882%, 21.176471%, 62.352941%)" stroke-opacity="1" stroke-miterlimit="10" d="M 488.124219 -1691.840781 C 488.124219 -1691.840781 413.874219 -1691.840781 413.874219 -1691.840781 C 407.874219 -1691.840781 401.874219 -1685.840781 401.874219 -1679.840781 C 401.874219 -1679.840781 401.874219 -1667.840781 401.874219 -1667.840781 C 401.874219 -1661.840781 407.874219 -1655.840781 413.874219 -1655.840781 C 413.874219 -1655.840781 488.124219 -1655.840781 488.124219 -1655.840781 C 494.124219 -1655.840781 500.124219 -1661.840781 500.124219 -1667.840781 C 500.124219 -1667.840781 500.124219 -1679.840781 500.124219 -1679.840781 C 500.124219 -1685.840781 494.124219 -1691.840781 488.124219 -1691.840781 " transform="matrix(1, 0, 0, 1, 43.2, 1735.04)"/>
<g fill="rgb(4.705882%, 21.176471%, 62.352941%)" fill-opacity="1">
<use xlink:href="#glyph-0-0" x="463.074219" y="65.300781"/>
<use xlink:href="#glyph-0-1" x="472.824219" y="65.300781"/>
<use xlink:href="#glyph-0-2" x="481.074219" y="65.300781"/>
<use xlink:href="#glyph-0-3" x="484.824219" y="65.300781"/>
<use xlink:href="#glyph-0-4" x="490.074219" y="65.300781"/>
<use xlink:href="#glyph-0-5" x="494.574219" y="65.300781"/>
<use xlink:href="#glyph-0-3" x="501.324219" y="65.300781"/>
<use xlink:href="#glyph-0-6" x="506.574219" y="65.300781"/>
<use xlink:href="#glyph-0-7" x="514.824219" y="65.300781"/>
<use xlink:href="#glyph-0-3" x="520.074219" y="65.300781"/>
</g>
<path fill-rule="nonzero" fill="rgb(100%, 95.294118%, 87.843137%)" fill-opacity="1" stroke-width="1.8" stroke-linecap="butt" stroke-linejoin="miter" stroke="rgb(7.843137%, 21.176471%, 25.882353%)" stroke-opacity="1" stroke-miterlimit="10" d="M 512.874219 -1588.840781 C 512.874219 -1588.840781 389.124219 -1588.840781 389.124219 -1588.840781 C 383.124219 -1588.840781 377.124219 -1582.840781 377.124219 -1576.840781 C 377.124219 -1576.840781 377.124219 -1550.559531 377.124219 -1550.559531 C 377.124219 -1544.559531 383.124219 -1538.559531 389.124219 -1538.559531 C 389.124219 -1538.559531 512.874219 -1538.559531 512.874219 -1538.559531 C 518.874219 -1538.559531 524.874219 -1544.559531 524.874219 -1550.559531 C 524.874219 -1550.559531 524.874219 -1576.840781 524.874219 -1576.840781 C 524.874219 -1582.840781 518.874219 -1588.840781 512.874219 -1588.840781 " transform="matrix(1, 0, 0, 1, 43.2, 1735.04)"/>
<g fill="rgb(21.568627%, 13.333333%, 21.568627%)" fill-opacity="1">
<use xlink:href="#glyph-0-8" x="453.699219" y="167.191406"/>
<use xlink:href="#glyph-0-9" x="461.949219" y="167.191406"/>
<use xlink:href="#glyph-0-5" x="470.199219" y="167.191406"/>
<use xlink:href="#glyph-0-10" x="476.949219" y="167.191406"/>
<use xlink:href="#glyph-0-11" x="485.199219" y="167.191406"/>
<use xlink:href="#glyph-0-12" x="488.949219" y="167.191406"/>
<use xlink:href="#glyph-0-9" x="496.449219" y="167.191406"/>
<use xlink:href="#glyph-0-4" x="504.699219" y="167.191406"/>
<use xlink:href="#glyph-0-13" x="509.199219" y="167.191406"/>
<use xlink:href="#glyph-0-1" x="517.449219" y="167.191406"/>
<use xlink:href="#glyph-0-2" x="525.699219" y="167.191406"/>
<use xlink:href="#glyph-0-3" x="529.449219" y="167.191406"/>
</g>
<g fill="rgb(21.568627%, 13.333333%, 21.568627%)" fill-opacity="1">
<use xlink:href="#glyph-0-10" x="438.324219" y="183.691406"/>
<use xlink:href="#glyph-0-1" x="446.574219" y="183.691406"/>
<use xlink:href="#glyph-0-3" x="454.824219" y="183.691406"/>
<use xlink:href="#glyph-0-10" x="460.074219" y="183.691406"/>
<use xlink:href="#glyph-0-11" x="468.324219" y="183.691406"/>
<use xlink:href="#glyph-0-10" x="472.074219" y="183.691406"/>
<use xlink:href="#glyph-0-14" x="480.324219" y="183.691406"/>
<use xlink:href="#glyph-0-15" x="488.574219" y="183.691406"/>
<use xlink:href="#glyph-0-4" x="496.074219" y="183.691406"/>
<use xlink:href="#glyph-0-16" x="500.574219" y="183.691406"/>
<use xlink:href="#glyph-0-10" x="508.074219" y="183.691406"/>
<use xlink:href="#glyph-0-1" x="516.324219" y="183.691406"/>
<use xlink:href="#glyph-0-3" x="524.574219" y="183.691406"/>
<use xlink:href="#glyph-0-9" x="529.824219" y="183.691406"/>
<use xlink:href="#glyph-0-17" x="537.324219" y="183.691406"/>
<use xlink:href="#glyph-0-3" x="544.824219" y="183.691406"/>
</g>
<path fill="none" stroke-width="1.5" stroke-linecap="butt" stroke-linejoin="miter" stroke="rgb(55.294118%, 43.137255%, 38.823529%)" stroke-opacity="1" stroke-miterlimit="10" d="M 450.999219 -1654.981406 C 450.999219 -1640.247031 450.999219 -1618.872031 450.999219 -1600.622031 " transform="matrix(1, 0, 0, 1, 43.2, 1735.04)"/>
<path fill-rule="nonzero" fill="rgb(55.294118%, 43.137255%, 38.823529%)" fill-opacity="1" stroke-width="1.5" stroke-linecap="butt" stroke-linejoin="miter" stroke="rgb(55.294118%, 43.137255%, 38.823529%)" stroke-opacity="1" stroke-miterlimit="10" d="M 454.151562 -1600.731406 L 450.999219 -1591.731406 L 447.850781 -1600.731406 Z M 454.151562 -1600.731406 " transform="matrix(1, 0, 0, 1, 43.2, 1735.04)"/>
<path fill-rule="nonzero" fill="rgb(100%, 95.294118%, 87.843137%)" fill-opacity="1" stroke-width="1.8" stroke-linecap="butt" stroke-linejoin="miter" stroke="rgb(7.843137%, 21.176471%, 25.882353%)" stroke-opacity="1" stroke-miterlimit="10" d="M 439.76875 -1467.329063 C 439.76875 -1467.329063 352.311719 -1434.387656 352.311719 -1434.387656 C 346.694531 -1432.274375 346.694531 -1428.043906 352.311719 -1425.930625 C 352.311719 -1425.930625 439.76875 -1392.989219 439.76875 -1392.989219 C 445.385937 -1390.875938 456.616406 -1390.875938 462.229687 -1392.989219 C 462.229687 -1392.989219 549.690625 -1425.930625 549.690625 -1425.930625 C 555.303906 -1428.043906 555.303906 -1432.274375 549.690625 -1434.387656 C 549.690625 -1434.387656 462.229687 -1467.329063 462.229687 -1467.329063 C 456.616406 -1469.44625 445.385937 -1469.44625 439.76875 -1467.329063 " transform="matrix(1, 0, 0, 1, 43.2, 1735.04)"/>
<g fill="rgb(21.568627%, 13.333333%, 21.568627%)" fill-opacity="1">
<use xlink:href="#glyph-1-0" x="452.199219" y="301.828125"/>
<use xlink:href="#glyph-1-1" x="456.699219" y="301.828125"/>
<use xlink:href="#glyph-1-2" x="463.449219" y="301.828125"/>
<use xlink:href="#glyph-1-3" x="470.199219" y="301.828125"/>
<use xlink:href="#glyph-1-1" x="476.949219" y="301.828125"/>
<use xlink:href="#glyph-1-0" x="483.699219" y="301.828125"/>
<use xlink:href="#glyph-1-4" x="488.199219" y="301.828125"/>
<use xlink:href="#glyph-1-5" x="491.949219" y="301.828125"/>
<use xlink:href="#glyph-1-6" x="498.699219" y="301.828125"/>
<use xlink:href="#glyph-1-6" x="503.199219" y="301.828125"/>
<use xlink:href="#glyph-1-1" x="507.699219" y="301.828125"/>
<use xlink:href="#glyph-1-7" x="514.449219" y="301.828125"/>
<use xlink:href="#glyph-1-8" x="524.949219" y="301.828125"/>
<use xlink:href="#glyph-1-6" x="531.699219" y="301.828125"/>
</g>
<g fill="rgb(21.568627%, 13.333333%, 21.568627%)" fill-opacity="1">
<use xlink:href="#glyph-1-9" x="452.199219" y="315.328125"/>
<use xlink:href="#glyph-1-4" x="458.949219" y="315.328125"/>
<use xlink:href="#glyph-1-10" x="462.699219" y="315.328125"/>
<use xlink:href="#glyph-1-4" x="473.949219" y="315.328125"/>
<use xlink:href="#glyph-1-7" x="477.699219" y="315.328125"/>
<use xlink:href="#glyph-1-5" x="488.199219" y="315.328125"/>
<use xlink:href="#glyph-1-11" x="494.949219" y="315.328125"/>
<use xlink:href="#glyph-1-12" x="501.699219" y="315.328125"/>
<use xlink:href="#glyph-1-13" x="506.949219" y="315.328125"/>
<use xlink:href="#glyph-1-14" x="513.699219" y="315.328125"/>
<use xlink:href="#glyph-1-15" x="516.699219" y="315.328125"/>
<use xlink:href="#glyph-1-14" x="522.699219" y="315.328125"/>
<use xlink:href="#glyph-1-6" x="525.699219" y="315.328125"/>
<use xlink:href="#glyph-1-15" x="530.199219" y="315.328125"/>
</g>
<path fill="none" stroke-width="1.5" stroke-linecap="butt" stroke-linejoin="miter" stroke="rgb(55.294118%, 43.137255%, 38.823529%)" stroke-opacity="1" stroke-miterlimit="10" d="M 450.999219 -1537.957969 C 450.999219 -1522.6025 450.999219 -1502.278281 450.999219 -1483.481406 " transform="matrix(1, 0, 0, 1, 43.2, 1735.04)"/>
<path fill-rule="nonzero" fill="rgb(55.294118%, 43.137255%, 38.823529%)" fill-opacity="1" stroke-width="1.5" stroke-linecap="butt" stroke-linejoin="miter" stroke="rgb(55.294118%, 43.137255%, 38.823529%)" stroke-opacity="1" stroke-miterlimit="10" d="M 454.151562 -1483.610313 L 450.999219 -1474.610313 L 447.850781 -1483.610313 Z M 454.151562 -1483.610313 " transform="matrix(1, 0, 0, 1, 43.2, 1735.04)"/>
<path fill-rule="nonzero" fill="rgb(100%, 95.294118%, 87.843137%)" fill-opacity="1" stroke-width="1.8" stroke-linecap="butt" stroke-linejoin="miter" stroke="rgb(7.843137%, 21.176471%, 25.882353%)" stroke-opacity="1" stroke-miterlimit="10" d="M 200.374219 -1310.00875 C 200.374219 -1310.00875 79.624219 -1310.00875 79.624219 -1310.00875 C 73.624219 -1310.00875 67.624219 -1304.00875 67.624219 -1298.00875 C 67.624219 -1298.00875 67.624219 -1286.00875 67.624219 -1286.00875 C 67.624219 -1280.00875 73.624219 -1274.00875 79.624219 -1274.00875 C 79.624219 -1274.00875 200.374219 -1274.00875 200.374219 -1274.00875 C 206.374219 -1274.00875 212.374219 -1280.00875 212.374219 -1286.00875 C 212.374219 -1286.00875 212.374219 -1298.00875 212.374219 -1298.00875 C 212.374219 -1304.00875 206.374219 -1310.00875 200.374219 -1310.00875 " transform="matrix(1, 0, 0, 1, 43.2, 1735.04)"/>
<g fill="rgb(21.568627%, 13.333333%, 21.568627%)" fill-opacity="1">
<use xlink:href="#glyph-0-8" x="128.824219" y="447.128906"/>
<use xlink:href="#glyph-0-9" x="137.074219" y="447.128906"/>
<use xlink:href="#glyph-0-1" x="145.324219" y="447.128906"/>
<use xlink:href="#glyph-0-18" x="153.574219" y="447.128906"/>
<use xlink:href="#glyph-0-9" x="161.824219" y="447.128906"/>
<use xlink:href="#glyph-0-7" x="170.074219" y="447.128906"/>
<use xlink:href="#glyph-0-4" x="175.324219" y="447.128906"/>
<use xlink:href="#glyph-0-10" x="179.824219" y="447.128906"/>
<use xlink:href="#glyph-0-1" x="188.074219" y="447.128906"/>
<use xlink:href="#glyph-0-3" x="196.324219" y="447.128906"/>
<use xlink:href="#glyph-0-10" x="201.574219" y="447.128906"/>
<use xlink:href="#glyph-0-11" x="209.824219" y="447.128906"/>
<use xlink:href="#glyph-0-10" x="213.574219" y="447.128906"/>
<use xlink:href="#glyph-0-14" x="221.824219" y="447.128906"/>
<use xlink:href="#glyph-0-15" x="230.074219" y="447.128906"/>
</g>
<path fill="none" stroke-width="1.5" stroke-linecap="butt" stroke-linejoin="miter" stroke="rgb(55.294118%, 43.137255%, 38.823529%)" stroke-opacity="1" stroke-miterlimit="10" d="M 398.069531 -1407.934531 C 362.760937 -1393.598594 315.39375 -1374.024375 273.999219 -1355.75875 C 244.979687 -1342.954063 212.776562 -1327.903281 187.214062 -1315.750938 " transform="matrix(1, 0, 0, 1, 43.2, 1735.04)"/>
<path fill-rule="nonzero" fill="rgb(55.294118%, 43.137255%, 38.823529%)" fill-opacity="1" stroke-width="1.5" stroke-linecap="butt" stroke-linejoin="miter" stroke="rgb(55.294118%, 43.137255%, 38.823529%)" stroke-opacity="1" stroke-miterlimit="10" d="M 188.58125 -1312.911094 L 179.100781 -1311.88375 L 185.870312 -1318.598594 Z M 188.58125 -1312.911094 " transform="matrix(1, 0, 0, 1, 43.2, 1735.04)"/>
<path fill-rule="nonzero" fill="rgb(100%, 95.294118%, 87.843137%)" fill-opacity="1" stroke-width="1.8" stroke-linecap="butt" stroke-linejoin="miter" stroke="rgb(7.843137%, 21.176471%, 25.882353%)" stroke-opacity="1" stroke-miterlimit="10" d="M 902.999219 -1310.00875 C 902.999219 -1310.00875 716.999219 -1310.00875 716.999219 -1310.00875 C 710.999219 -1310.00875 704.999219 -1304.00875 704.999219 -1298.00875 C 704.999219 -1298.00875 704.999219 -1286.00875 704.999219 -1286.00875 C 704.999219 -1280.00875 710.999219 -1274.00875 716.999219 -1274.00875 C 716.999219 -1274.00875 902.999219 -1274.00875 902.999219 -1274.00875 C 908.999219 -1274.00875 914.999219 -1280.00875 914.999219 -1286.00875 C 914.999219 -1286.00875 914.999219 -1298.00875 914.999219 -1298.00875 C 914.999219 -1304.00875 908.999219 -1310.00875 902.999219 -1310.00875 " transform="matrix(1, 0, 0, 1, 43.2, 1735.04)"/>
<g fill="rgb(21.568627%, 13.333333%, 21.568627%)" fill-opacity="1">
<use xlink:href="#glyph-0-8" x="766.199219" y="447.128906"/>
<use xlink:href="#glyph-0-9" x="774.449219" y="447.128906"/>
<use xlink:href="#glyph-0-3" x="782.699219" y="447.128906"/>
<use xlink:href="#glyph-0-13" x="787.949219" y="447.128906"/>
<use xlink:href="#glyph-0-7" x="796.199219" y="447.128906"/>
<use xlink:href="#glyph-0-1" x="801.449219" y="447.128906"/>
<use xlink:href="#glyph-0-4" x="809.699219" y="447.128906"/>
<use xlink:href="#glyph-0-19" x="814.199219" y="447.128906"/>
<use xlink:href="#glyph-0-7" x="819.449219" y="447.128906"/>
<use xlink:href="#glyph-0-9" x="824.699219" y="447.128906"/>
<use xlink:href="#glyph-0-3" x="832.949219" y="447.128906"/>
<use xlink:href="#glyph-0-7" x="838.199219" y="447.128906"/>
<use xlink:href="#glyph-0-2" x="843.449219" y="447.128906"/>
<use xlink:href="#glyph-0-9" x="847.199219" y="447.128906"/>
<use xlink:href="#glyph-0-5" x="855.449219" y="447.128906"/>
<use xlink:href="#glyph-0-4" x="862.199219" y="447.128906"/>
<use xlink:href="#glyph-0-9" x="866.699219" y="447.128906"/>
<use xlink:href="#glyph-0-17" x="874.199219" y="447.128906"/>
<use xlink:href="#glyph-0-20" x="881.699219" y="447.128906"/>
<use xlink:href="#glyph-0-6" x="889.949219" y="447.128906"/>
<use xlink:href="#glyph-0-13" x="898.199219" y="447.128906"/>
<use xlink:href="#glyph-0-5" x="906.449219" y="447.128906"/>
<use xlink:href="#glyph-0-3" x="913.199219" y="447.128906"/>
<use xlink:href="#glyph-0-9" x="918.449219" y="447.128906"/>
<use xlink:href="#glyph-0-18" x="926.699219" y="447.128906"/>
<use xlink:href="#glyph-0-21" x="934.949219" y="447.128906"/>
</g>
<path fill="none" stroke-width="1.5" stroke-linecap="butt" stroke-linejoin="miter" stroke="rgb(90.196078%, 29.019608%, 9.803922%)" stroke-opacity="1" stroke-dasharray="6" stroke-miterlimit="10" d="M 510.628125 -1410.422813 C 554.280469 -1396.336875 614.760937 -1376.055625 666.999219 -1355.75875 C 698.932812 -1343.356406 734.178906 -1327.907188 761.690625 -1315.44625 " transform="matrix(1, 0, 0, 1, 43.2, 1735.04)"/>
<path fill-rule="nonzero" fill="rgb(90.196078%, 29.019608%, 9.803922%)" fill-opacity="1" stroke-width="1.5" stroke-linecap="butt" stroke-linejoin="miter" stroke="rgb(90.196078%, 29.019608%, 9.803922%)" stroke-opacity="1" stroke-miterlimit="10" d="M 762.882031 -1318.364219 L 769.76875 -1311.766563 L 760.272656 -1312.629844 Z M 762.882031 -1318.364219 " transform="matrix(1, 0, 0, 1, 43.2, 1735.04)"/>
<g fill="rgb(90.196078%, 29.019608%, 9.803922%)" fill-opacity="1">
<use xlink:href="#glyph-2-0" x="737.917969" y="388.78125"/>
<use xlink:href="#glyph-2-1" x="743.917969" y="388.78125"/>
<use xlink:href="#glyph-2-2" x="749.917969" y="388.78125"/>
<use xlink:href="#glyph-2-3" x="755.917969" y="388.78125"/>
<use xlink:href="#glyph-2-4" x="761.917969" y="388.78125"/>
<use xlink:href="#glyph-2-5" x="767.917969" y="388.78125"/>
<use xlink:href="#glyph-2-6" x="773.167969" y="388.78125"/>
<use xlink:href="#glyph-2-0" x="776.917969" y="388.78125"/>
<use xlink:href="#glyph-2-7" x="782.917969" y="388.78125"/>
</g>
<path fill-rule="nonzero" fill="rgb(100%, 95.294118%, 87.843137%)" fill-opacity="1" stroke-width="1.8" stroke-linecap="butt" stroke-linejoin="miter" stroke="rgb(7.843137%, 21.176471%, 25.882353%)" stroke-opacity="1" stroke-miterlimit="10" d="M 176.354687 -1192.364219 C 176.354687 -1192.364219 87.475781 -1170.254844 87.475781 -1170.254844 C 81.651562 -1168.809531 81.651562 -1165.911094 87.475781 -1164.461875 C 87.475781 -1164.461875 176.354687 -1142.356406 176.354687 -1142.356406 C 182.178906 -1140.907188 193.823437 -1140.907188 199.64375 -1142.356406 C 199.64375 -1142.356406 288.526562 -1164.461875 288.526562 -1164.461875 C 294.346875 -1165.911094 294.346875 -1168.809531 288.526562 -1170.254844 C 288.526562 -1170.254844 199.64375 -1192.364219 199.64375 -1192.364219 C 193.823437 -1193.813438 182.178906 -1193.813438 176.354687 -1192.364219 " transform="matrix(1, 0, 0, 1, 43.2, 1735.04)"/>
<g fill="rgb(21.568627%, 13.333333%, 21.568627%)" fill-opacity="1">
<use xlink:href="#glyph-1-14" x="188.074219" y="571.378906"/>
<use xlink:href="#glyph-1-2" x="191.074219" y="571.378906"/>
<use xlink:href="#glyph-1-14" x="197.824219" y="571.378906"/>
<use xlink:href="#glyph-1-6" x="200.824219" y="571.378906"/>
<use xlink:href="#glyph-1-14" x="205.324219" y="571.378906"/>
<use xlink:href="#glyph-1-5" x="208.324219" y="571.378906"/>
<use xlink:href="#glyph-1-6" x="215.074219" y="571.378906"/>
<use xlink:href="#glyph-1-1" x="219.574219" y="571.378906"/>
<use xlink:href="#glyph-1-12" x="226.324219" y="571.378906"/>
<use xlink:href="#glyph-1-15" x="231.574219" y="571.378906"/>
<use xlink:href="#glyph-1-1" x="237.574219" y="571.378906"/>
<use xlink:href="#glyph-1-5" x="244.324219" y="571.378906"/>
<use xlink:href="#glyph-1-0" x="251.074219" y="571.378906"/>
<use xlink:href="#glyph-1-16" x="255.574219" y="571.378906"/>
<use xlink:href="#glyph-1-17" x="261.574219" y="571.378906"/>
<use xlink:href="#glyph-1-18" x="268.324219" y="571.378906"/>
</g>
<path fill="none" stroke-width="1.5" stroke-linecap="butt" stroke-linejoin="miter" stroke="rgb(90.196078%, 29.019608%, 9.803922%)" stroke-opacity="1" stroke-dasharray="6" stroke-miterlimit="10" d="M 146.979687 -1273.176719 C 154.073437 -1255.051719 165.253125 -1226.485313 174.151562 -1203.750938 " transform="matrix(1, 0, 0, 1, 43.2, 1735.04)"/>
<path fill-rule="nonzero" fill="rgb(90.196078%, 29.019608%, 9.803922%)" fill-opacity="1" stroke-width="1.5" stroke-linecap="butt" stroke-linejoin="miter" stroke="rgb(90.196078%, 29.019608%, 9.803922%)" stroke-opacity="1" stroke-miterlimit="10" d="M 177.007031 -1205.094688 L 177.354687 -1195.563438 L 171.139844 -1202.797813 Z M 177.007031 -1205.094688 " transform="matrix(1, 0, 0, 1, 43.2, 1735.04)"/>
<g fill="rgb(90.196078%, 29.019608%, 9.803922%)" fill-opacity="1">
<use xlink:href="#glyph-2-8" x="207.199219" y="503.53125"/>
<use xlink:href="#glyph-2-3" x="210.949219" y="503.53125"/>
<use xlink:href="#glyph-2-9" x="216.949219" y="503.53125"/>
<use xlink:href="#glyph-2-10" x="219.949219" y="503.53125"/>
</g>
<path fill-rule="nonzero" fill="rgb(100%, 95.294118%, 87.843137%)" fill-opacity="1" stroke-width="1.8" stroke-linecap="butt" stroke-linejoin="miter" stroke="rgb(7.843137%, 21.176471%, 25.882353%)" stroke-opacity="1" stroke-miterlimit="10" d="M 187.120312 -823.614219 C 187.120312 -823.614219 119.960156 -792.344688 119.960156 -792.344688 C 114.51875 -789.813438 114.51875 -784.747031 119.960156 -782.215781 C 119.960156 -782.215781 187.120312 -750.94625 187.120312 -750.94625 C 192.561719 -748.411094 203.440625 -748.411094 208.878125 -750.94625 C 208.878125 -750.94625 276.042187 -782.215781 276.042187 -782.215781 C 281.479687 -784.747031 281.479687 -789.813438 276.042187 -792.344688 C 276.042187 -792.344688 208.878125 -823.614219 208.878125 -823.614219 C 203.440625 -826.149375 192.561719 -826.149375 187.120312 -823.614219 " transform="matrix(1, 0, 0, 1, 43.2, 1735.04)"/>
<g fill="rgb(21.568627%, 13.333333%, 21.568627%)" fill-opacity="1">
<use xlink:href="#glyph-1-19" x="209.699219" y="944.710938"/>
<use xlink:href="#glyph-1-2" x="216.449219" y="944.710938"/>
<use xlink:href="#glyph-1-5" x="223.199219" y="944.710938"/>
<use xlink:href="#glyph-1-20" x="229.949219" y="944.710938"/>
<use xlink:href="#glyph-1-4" x="232.949219" y="944.710938"/>
<use xlink:href="#glyph-1-0" x="236.699219" y="944.710938"/>
<use xlink:href="#glyph-1-1" x="241.199219" y="944.710938"/>
<use xlink:href="#glyph-1-2" x="247.949219" y="944.710938"/>
<use xlink:href="#glyph-1-3" x="254.699219" y="944.710938"/>
<use xlink:href="#glyph-1-1" x="261.449219" y="944.710938"/>
<use xlink:href="#glyph-1-0" x="268.199219" y="944.710938"/>
</g>
<g fill="rgb(21.568627%, 13.333333%, 21.568627%)" fill-opacity="1">
<use xlink:href="#glyph-1-5" x="216.074219" y="958.210938"/>
<use xlink:href="#glyph-1-6" x="222.824219" y="958.210938"/>
<use xlink:href="#glyph-1-6" x="227.324219" y="958.210938"/>
<use xlink:href="#glyph-1-1" x="231.824219" y="958.210938"/>
<use xlink:href="#glyph-1-7" x="238.574219" y="958.210938"/>
<use xlink:href="#glyph-1-8" x="249.074219" y="958.210938"/>
<use xlink:href="#glyph-1-6" x="255.824219" y="958.210938"/>
<use xlink:href="#glyph-1-18" x="260.324219" y="958.210938"/>
</g>
<path fill="none" stroke-width="1.5" stroke-linecap="butt" stroke-linejoin="miter" stroke="rgb(90.196078%, 29.019608%, 9.803922%)" stroke-opacity="1" stroke-dasharray="6" stroke-miterlimit="10" d="M 93.772656 -1273.114219 C 52.991406 -1253.950156 -0.00078125 -1219.254844 -0.00078125 -1168.360313 C -0.00078125 -1168.360313 -0.00078125 -1168.360313 -0.00078125 -924.430625 C -0.00078125 -860.317344 71.358594 -824.114219 128.397656 -805.415 " transform="matrix(1, 0, 0, 1, 43.2, 1735.04)"/>
<path fill-rule="nonzero" fill="rgb(90.196078%, 29.019608%, 9.803922%)" fill-opacity="1" stroke-width="1.5" stroke-linecap="butt" stroke-linejoin="miter" stroke="rgb(90.196078%, 29.019608%, 9.803922%)" stroke-opacity="1" stroke-miterlimit="10" d="M 129.053906 -808.512656 L 136.694531 -802.805625 L 127.167187 -802.500938 Z M 129.053906 -808.512656 " transform="matrix(1, 0, 0, 1, 43.2, 1735.04)"/>
<g fill="rgb(90.196078%, 29.019608%, 9.803922%)" fill-opacity="1">
<use xlink:href="#glyph-2-5" x="43.199219" y="702.59375"/>
<use xlink:href="#glyph-2-4" x="48.449219" y="702.59375"/>
<use xlink:href="#glyph-2-11" x="54.449219" y="702.59375"/>
<use xlink:href="#glyph-2-11" x="59.699219" y="702.59375"/>
<use xlink:href="#glyph-2-0" x="64.949219" y="702.59375"/>
<use xlink:href="#glyph-2-5" x="70.949219" y="702.59375"/>
<use xlink:href="#glyph-2-5" x="76.199219" y="702.59375"/>
</g>
<path fill="none" stroke-width="1.5" stroke-linecap="butt" stroke-linejoin="miter" stroke="rgb(90.196078%, 29.019608%, 9.803922%)" stroke-opacity="1" stroke-dasharray="6" stroke-miterlimit="10" d="M 207.444531 -1191.192344 C 238.678906 -1227.422813 302.565625 -1299.715781 361.999219 -1355.75875 C 376.128125 -1369.082969 392.323437 -1382.844688 406.991406 -1394.801719 " transform="matrix(1, 0, 0, 1, 43.2, 1735.04)"/>
<path fill-rule="nonzero" fill="rgb(90.196078%, 29.019608%, 9.803922%)" fill-opacity="1" stroke-width="1.5" stroke-linecap="butt" stroke-linejoin="miter" stroke="rgb(90.196078%, 29.019608%, 9.803922%)" stroke-opacity="1" stroke-miterlimit="10" d="M 404.678906 -1396.981406 L 413.659375 -1400.188438 L 408.639844 -1392.082969 Z M 404.678906 -1396.981406 " transform="matrix(1, 0, 0, 1, 43.2, 1735.04)"/>
<g fill="rgb(90.196078%, 29.019608%, 9.803922%)" fill-opacity="1">
<use xlink:href="#glyph-2-12" x="358.09375" y="446.15625"/>
<use xlink:href="#glyph-2-13" x="364.09375" y="446.15625"/>
</g>
<path fill-rule="nonzero" fill="rgb(100%, 95.294118%, 87.843137%)" fill-opacity="1" stroke-width="1.8" stroke-linecap="butt" stroke-linejoin="miter" stroke="rgb(7.843137%, 21.176471%, 25.882353%)" stroke-opacity="1" stroke-miterlimit="10" d="M 246.749219 -1060.711875 C 246.749219 -1060.711875 143.249219 -1060.711875 143.249219 -1060.711875 C 137.249219 -1060.711875 131.249219 -1054.711875 131.249219 -1048.711875 C 131.249219 -1048.711875 131.249219 -1022.430625 131.249219 -1022.430625 C 131.249219 -1016.430625 137.249219 -1010.430625 143.249219 -1010.430625 C 143.249219 -1010.430625 246.749219 -1010.430625 246.749219 -1010.430625 C 252.749219 -1010.430625 258.749219 -1016.430625 258.749219 -1022.430625 C 258.749219 -1022.430625 258.749219 -1048.711875 258.749219 -1048.711875 C 258.749219 -1054.711875 252.749219 -1060.711875 246.749219 -1060.711875 " transform="matrix(1, 0, 0, 1, 43.2, 1735.04)"/>
<g fill="rgb(21.568627%, 13.333333%, 21.568627%)" fill-opacity="1">
<use xlink:href="#glyph-0-22" x="197.324219" y="695.320313"/>
<use xlink:href="#glyph-0-11" x="204.824219" y="695.320313"/>
<use xlink:href="#glyph-0-6" x="208.574219" y="695.320313"/>
<use xlink:href="#glyph-0-1" x="216.824219" y="695.320313"/>
<use xlink:href="#glyph-0-4" x="225.074219" y="695.320313"/>
<use xlink:href="#glyph-0-23" x="229.574219" y="695.320313"/>
<use xlink:href="#glyph-0-4" x="240.824219" y="695.320313"/>
<use xlink:href="#glyph-0-24" x="245.324219" y="695.320313"/>
<use xlink:href="#glyph-0-9" x="249.824219" y="695.320313"/>
<use xlink:href="#glyph-0-3" x="258.074219" y="695.320313"/>
<use xlink:href="#glyph-0-16" x="263.324219" y="695.320313"/>
<use xlink:href="#glyph-0-20" x="270.824219" y="695.320313"/>
</g>
<g fill="rgb(21.568627%, 13.333333%, 21.568627%)" fill-opacity="1">
<use xlink:href="#glyph-0-25" x="192.449219" y="711.820313"/>
<use xlink:href="#glyph-0-9" x="202.949219" y="711.820313"/>
<use xlink:href="#glyph-0-26" x="211.199219" y="711.820313"/>
<use xlink:href="#glyph-0-4" x="219.449219" y="711.820313"/>
<use xlink:href="#glyph-0-9" x="223.949219" y="711.820313"/>
<use xlink:href="#glyph-0-12" x="232.199219" y="711.820313"/>
<use xlink:href="#glyph-0-2" x="239.699219" y="711.820313"/>
<use xlink:href="#glyph-0-18" x="243.449219" y="711.820313"/>
<use xlink:href="#glyph-0-9" x="251.699219" y="711.820313"/>
<use xlink:href="#glyph-0-1" x="259.949219" y="711.820313"/>
<use xlink:href="#glyph-0-16" x="268.199219" y="711.820313"/>
<use xlink:href="#glyph-0-9" x="275.699219" y="711.820313"/>
</g>
<path fill="none" stroke-width="1.5" stroke-linecap="butt" stroke-linejoin="miter" stroke="rgb(90.196078%, 29.019608%, 9.803922%)" stroke-opacity="1" stroke-dasharray="6" stroke-miterlimit="10" d="M 189.467969 -1139.153281 C 190.510937 -1119.832969 191.917187 -1093.700156 193.053906 -1072.645469 " transform="matrix(1, 0, 0, 1, 43.2, 1735.04)"/>
<path fill-rule="nonzero" fill="rgb(90.196078%, 29.019608%, 9.803922%)" fill-opacity="1" stroke-width="1.5" stroke-linecap="butt" stroke-linejoin="miter" stroke="rgb(90.196078%, 29.019608%, 9.803922%)" stroke-opacity="1" stroke-miterlimit="10" d="M 196.190625 -1072.969688 L 193.530469 -1063.809531 L 189.901562 -1072.629844 Z M 196.190625 -1072.969688 " transform="matrix(1, 0, 0, 1, 43.2, 1735.04)"/>
<g fill="rgb(90.196078%, 29.019608%, 9.803922%)" fill-opacity="1">
<use xlink:href="#glyph-2-14" x="234.910156" y="638.078125"/>
<use xlink:href="#glyph-2-0" x="240.910156" y="638.078125"/>
<use xlink:href="#glyph-2-5" x="246.910156" y="638.078125"/>
</g>
<path fill-rule="nonzero" fill="rgb(73.72549%, 80%, 100%)" fill-opacity="1" stroke-width="2.5" stroke-linecap="butt" stroke-linejoin="miter" stroke="rgb(4.705882%, 21.176471%, 62.352941%)" stroke-opacity="1" stroke-miterlimit="10" d="M 502.874219 -36.000938 C 502.874219 -36.000938 379.124219 -36.000938 379.124219 -36.000938 C 373.124219 -36.000938 367.124219 -30.000938 367.124219 -24.000938 C 367.124219 -24.000938 367.124219 -12.000938 367.124219 -12.000938 C 367.124219 -6.000938 373.124219 -0.0009375 379.124219 -0.0009375 C 379.124219 -0.0009375 502.874219 -0.0009375 502.874219 -0.0009375 C 508.874219 -0.0009375 514.874219 -6.000938 514.874219 -12.000938 C 514.874219 -12.000938 514.874219 -24.000938 514.874219 -24.000938 C 514.874219 -30.000938 508.874219 -36.000938 502.874219 -36.000938 " transform="matrix(1, 0, 0, 1, 43.2, 1735.04)"/>
<g fill="rgb(4.705882%, 21.176471%, 62.352941%)" fill-opacity="1">
<use xlink:href="#glyph-0-8" x="428.324219" y="1721.140625"/>
<use xlink:href="#glyph-0-9" x="436.574219" y="1721.140625"/>
<use xlink:href="#glyph-0-3" x="444.824219" y="1721.140625"/>
<use xlink:href="#glyph-0-13" x="450.074219" y="1721.140625"/>
<use xlink:href="#glyph-0-7" x="458.324219" y="1721.140625"/>
<use xlink:href="#glyph-0-1" x="463.574219" y="1721.140625"/>
<use xlink:href="#glyph-0-4" x="471.824219" y="1721.140625"/>
<use xlink:href="#glyph-0-13" x="476.324219" y="1721.140625"/>
<use xlink:href="#glyph-0-1" x="484.574219" y="1721.140625"/>
<use xlink:href="#glyph-0-2" x="492.824219" y="1721.140625"/>
<use xlink:href="#glyph-0-3" x="496.574219" y="1721.140625"/>
<use xlink:href="#glyph-0-4" x="501.824219" y="1721.140625"/>
<use xlink:href="#glyph-0-5" x="506.324219" y="1721.140625"/>
<use xlink:href="#glyph-0-3" x="513.074219" y="1721.140625"/>
<use xlink:href="#glyph-0-6" x="518.324219" y="1721.140625"/>
<use xlink:href="#glyph-0-3" x="526.574219" y="1721.140625"/>
<use xlink:href="#glyph-0-9" x="531.824219" y="1721.140625"/>
</g>
<path fill="none" stroke-width="1.5" stroke-linecap="butt" stroke-linejoin="miter" stroke="rgb(90.196078%, 29.019608%, 9.803922%)" stroke-opacity="1" stroke-dasharray="6" stroke-miterlimit="10" d="M 197.999219 -744.957969 C 197.999219 -712.747031 197.999219 -666.895469 197.999219 -626.731406 C 197.999219 -626.731406 197.999219 -626.731406 197.999219 -131.750938 C 197.999219 -60.454063 285.135937 -34.114219 355.053906 -24.454063 " transform="matrix(1, 0, 0, 1, 43.2, 1735.04)"/>
<path fill-rule="nonzero" fill="rgb(90.196078%, 29.019608%, 9.803922%)" fill-opacity="1" stroke-width="1.5" stroke-linecap="butt" stroke-linejoin="miter" stroke="rgb(90.196078%, 29.019608%, 9.803922%)" stroke-opacity="1" stroke-miterlimit="10" d="M 355.327344 -27.594688 L 363.858594 -23.332969 L 354.530469 -21.348594 Z M 355.327344 -27.594688 " transform="matrix(1, 0, 0, 1, 43.2, 1735.04)"/>
<g fill="rgb(90.196078%, 29.019608%, 9.803922%)" fill-opacity="1">
<use xlink:href="#glyph-2-14" x="241.199219" y="1363.484375"/>
<use xlink:href="#glyph-2-0" x="247.199219" y="1363.484375"/>
<use xlink:href="#glyph-2-5" x="253.199219" y="1363.484375"/>
</g>
<path fill-rule="nonzero" fill="rgb(100%, 95.294118%, 87.843137%)" fill-opacity="1" stroke-width="1.8" stroke-linecap="butt" stroke-linejoin="miter" stroke="rgb(7.843137%, 21.176471%, 25.882353%)" stroke-opacity="1" stroke-miterlimit="10" d="M 402.76875 -662.899375 C 402.76875 -662.899375 315.311719 -629.957969 315.311719 -629.957969 C 309.694531 -627.844688 309.694531 -623.614219 315.311719 -621.500938 C 315.311719 -621.500938 402.76875 -588.559531 402.76875 -588.559531 C 408.385937 -586.44625 419.616406 -586.44625 425.229687 -588.559531 C 425.229687 -588.559531 512.690625 -621.500938 512.690625 -621.500938 C 518.303906 -623.614219 518.303906 -627.844688 512.690625 -629.957969 C 512.690625 -629.957969 425.229687 -662.899375 425.229687 -662.899375 C 419.616406 -665.016563 408.385937 -665.016563 402.76875 -662.899375 " transform="matrix(1, 0, 0, 1, 43.2, 1735.04)"/>
<g fill="rgb(21.568627%, 13.333333%, 21.568627%)" fill-opacity="1">
<use xlink:href="#glyph-1-16" x="419.699219" y="1106.261719"/>
<use xlink:href="#glyph-1-0" x="425.699219" y="1106.261719"/>
<use xlink:href="#glyph-1-14" x="430.199219" y="1106.261719"/>
<use xlink:href="#glyph-1-6" x="433.199219" y="1106.261719"/>
<use xlink:href="#glyph-1-14" x="437.699219" y="1106.261719"/>
<use xlink:href="#glyph-1-16" x="440.699219" y="1106.261719"/>
<use xlink:href="#glyph-1-4" x="446.699219" y="1106.261719"/>
<use xlink:href="#glyph-1-5" x="450.449219" y="1106.261719"/>
<use xlink:href="#glyph-1-6" x="457.199219" y="1106.261719"/>
<use xlink:href="#glyph-1-6" x="461.699219" y="1106.261719"/>
<use xlink:href="#glyph-1-1" x="466.199219" y="1106.261719"/>
<use xlink:href="#glyph-1-7" x="472.949219" y="1106.261719"/>
<use xlink:href="#glyph-1-8" x="483.449219" y="1106.261719"/>
<use xlink:href="#glyph-1-6" x="490.199219" y="1106.261719"/>
</g>
<g fill="rgb(21.568627%, 13.333333%, 21.568627%)" fill-opacity="1">
<use xlink:href="#glyph-1-9" x="415.199219" y="1119.761719"/>
<use xlink:href="#glyph-1-4" x="421.949219" y="1119.761719"/>
<use xlink:href="#glyph-1-10" x="425.699219" y="1119.761719"/>
<use xlink:href="#glyph-1-4" x="436.949219" y="1119.761719"/>
<use xlink:href="#glyph-1-7" x="440.699219" y="1119.761719"/>
<use xlink:href="#glyph-1-5" x="451.199219" y="1119.761719"/>
<use xlink:href="#glyph-1-11" x="457.949219" y="1119.761719"/>
<use xlink:href="#glyph-1-12" x="464.699219" y="1119.761719"/>
<use xlink:href="#glyph-1-13" x="469.949219" y="1119.761719"/>
<use xlink:href="#glyph-1-14" x="476.699219" y="1119.761719"/>
<use xlink:href="#glyph-1-15" x="479.699219" y="1119.761719"/>
<use xlink:href="#glyph-1-14" x="485.699219" y="1119.761719"/>
<use xlink:href="#glyph-1-6" x="488.699219" y="1119.761719"/>
<use xlink:href="#glyph-1-15" x="493.199219" y="1119.761719"/>
</g>
<path fill="none" stroke-width="1.5" stroke-linecap="butt" stroke-linejoin="miter" stroke="rgb(90.196078%, 29.019608%, 9.803922%)" stroke-opacity="1" stroke-dasharray="6" stroke-miterlimit="10" d="M 232.225781 -760.997031 C 268.944531 -733.875938 327.452344 -690.661094 368.132031 -660.610313 " transform="matrix(1, 0, 0, 1, 43.2, 1735.04)"/>
<path fill-rule="nonzero" fill="rgb(90.196078%, 29.019608%, 9.803922%)" fill-opacity="1" stroke-width="1.5" stroke-linecap="butt" stroke-linejoin="miter" stroke="rgb(90.196078%, 29.019608%, 9.803922%)" stroke-opacity="1" stroke-miterlimit="10" d="M 369.846875 -663.25875 L 375.214062 -655.379844 L 366.104687 -658.192344 Z M 369.846875 -663.25875 " transform="matrix(1, 0, 0, 1, 43.2, 1735.04)"/>
<g fill="rgb(90.196078%, 29.019608%, 9.803922%)" fill-opacity="1">
<use xlink:href="#glyph-2-12" x="355.675781" y="1031.660156"/>
<use xlink:href="#glyph-2-13" x="361.675781" y="1031.660156"/>
</g>
<path fill-rule="nonzero" fill="rgb(100%, 95.294118%, 87.843137%)" fill-opacity="1" stroke-width="1.8" stroke-linecap="butt" stroke-linejoin="miter" stroke="rgb(7.843137%, 21.176471%, 25.882353%)" stroke-opacity="1" stroke-miterlimit="10" d="M 267.374219 -943.430625 C 267.374219 -943.430625 128.624219 -943.430625 128.624219 -943.430625 C 122.624219 -943.430625 116.624219 -937.430625 116.624219 -931.430625 C 116.624219 -931.430625 116.624219 -919.430625 116.624219 -919.430625 C 116.624219 -913.430625 122.624219 -907.430625 128.624219 -907.430625 C 128.624219 -907.430625 267.374219 -907.430625 267.374219 -907.430625 C 273.374219 -907.430625 279.374219 -913.430625 279.374219 -919.430625 C 279.374219 -919.430625 279.374219 -931.430625 279.374219 -931.430625 C 279.374219 -937.430625 273.374219 -943.430625 267.374219 -943.430625 " transform="matrix(1, 0, 0, 1, 43.2, 1735.04)"/>
<g fill="rgb(21.568627%, 13.333333%, 21.568627%)" fill-opacity="1">
<use xlink:href="#glyph-0-8" x="177.824219" y="813.710938"/>
<use xlink:href="#glyph-0-9" x="186.074219" y="813.710938"/>
<use xlink:href="#glyph-0-27" x="194.324219" y="813.710938"/>
<use xlink:href="#glyph-0-7" x="198.824219" y="813.710938"/>
<use xlink:href="#glyph-0-9" x="204.074219" y="813.710938"/>
<use xlink:href="#glyph-0-1" x="212.324219" y="813.710938"/>
<use xlink:href="#glyph-0-18" x="220.574219" y="813.710938"/>
<use xlink:href="#glyph-0-9" x="228.824219" y="813.710938"/>
<use xlink:href="#glyph-0-7" x="237.074219" y="813.710938"/>
<use xlink:href="#glyph-0-4" x="242.324219" y="813.710938"/>
<use xlink:href="#glyph-0-10" x="246.824219" y="813.710938"/>
<use xlink:href="#glyph-0-1" x="255.074219" y="813.710938"/>
<use xlink:href="#glyph-0-3" x="263.324219" y="813.710938"/>
<use xlink:href="#glyph-0-10" x="268.574219" y="813.710938"/>
<use xlink:href="#glyph-0-11" x="276.824219" y="813.710938"/>
<use xlink:href="#glyph-0-10" x="280.574219" y="813.710938"/>
<use xlink:href="#glyph-0-14" x="288.824219" y="813.710938"/>
<use xlink:href="#glyph-0-15" x="297.074219" y="813.710938"/>
</g>
<path fill="none" stroke-width="1.5" stroke-linecap="butt" stroke-linejoin="miter" stroke="rgb(55.294118%, 43.137255%, 38.823529%)" stroke-opacity="1" stroke-miterlimit="10" d="M 195.686719 -1009.75875 C 196.139844 -993.44625 196.733594 -972.047813 197.20625 -955.016563 " transform="matrix(1, 0, 0, 1, 43.2, 1735.04)"/>
<path fill-rule="nonzero" fill="rgb(55.294118%, 43.137255%, 38.823529%)" fill-opacity="1" stroke-width="1.5" stroke-linecap="butt" stroke-linejoin="miter" stroke="rgb(55.294118%, 43.137255%, 38.823529%)" stroke-opacity="1" stroke-miterlimit="10" d="M 200.346875 -955.399375 L 197.448437 -946.313438 L 194.05 -955.223594 Z M 200.346875 -955.399375 " transform="matrix(1, 0, 0, 1, 43.2, 1735.04)"/>
<path fill="none" stroke-width="1.5" stroke-linecap="butt" stroke-linejoin="miter" stroke="rgb(90.196078%, 29.019608%, 9.803922%)" stroke-opacity="1" stroke-dasharray="6" stroke-miterlimit="10" d="M 221.085156 -944.313438 C 240.085156 -960.024375 266.624219 -984.387656 283.999219 -1010.430625 C 365.264844 -1132.243125 416.948437 -1299.665 438.882031 -1380.961875 " transform="matrix(1, 0, 0, 1, 43.2, 1735.04)"/>
<path fill-rule="nonzero" fill="rgb(90.196078%, 29.019608%, 9.803922%)" fill-opacity="1" stroke-width="1.5" stroke-linecap="butt" stroke-linejoin="miter" stroke="rgb(90.196078%, 29.019608%, 9.803922%)" stroke-opacity="1" stroke-miterlimit="10" d="M 435.710156 -1381.301719 L 441.069531 -1389.188438 L 441.8 -1379.680625 Z M 435.710156 -1381.301719 " transform="matrix(1, 0, 0, 1, 43.2, 1735.04)"/>
<g fill="rgb(90.196078%, 29.019608%, 9.803922%)" fill-opacity="1">
<use xlink:href="#glyph-2-8" x="420.351562" y="570.804688"/>
<use xlink:href="#glyph-2-3" x="424.101562" y="570.804688"/>
<use xlink:href="#glyph-2-9" x="430.101562" y="570.804688"/>
<use xlink:href="#glyph-2-10" x="433.101562" y="570.804688"/>
</g>
<path fill="none" stroke-width="1.5" stroke-linecap="butt" stroke-linejoin="miter" stroke="rgb(90.196078%, 29.019608%, 9.803922%)" stroke-opacity="1" stroke-dasharray="6" stroke-miterlimit="10" d="M 197.999219 -906.629844 C 197.999219 -889.907188 197.999219 -864.032188 197.999219 -840.739219 " transform="matrix(1, 0, 0, 1, 43.2, 1735.04)"/>
<path fill-rule="nonzero" fill="rgb(90.196078%, 29.019608%, 9.803922%)" fill-opacity="1" stroke-width="1.5" stroke-linecap="butt" stroke-linejoin="miter" stroke="rgb(90.196078%, 29.019608%, 9.803922%)" stroke-opacity="1" stroke-miterlimit="10" d="M 201.151562 -840.832969 L 197.999219 -831.832969 L 194.850781 -840.832969 Z M 201.151562 -840.832969 " transform="matrix(1, 0, 0, 1, 43.2, 1735.04)"/>
<g fill="rgb(90.196078%, 29.019608%, 9.803922%)" fill-opacity="1">
<use xlink:href="#glyph-2-5" x="241.199219" y="870.109375"/>
<use xlink:href="#glyph-2-4" x="246.449219" y="870.109375"/>
<use xlink:href="#glyph-2-11" x="252.449219" y="870.109375"/>
<use xlink:href="#glyph-2-11" x="257.699219" y="870.109375"/>
<use xlink:href="#glyph-2-0" x="262.949219" y="870.109375"/>
<use xlink:href="#glyph-2-5" x="268.949219" y="870.109375"/>
<use xlink:href="#glyph-2-5" x="274.199219" y="870.109375"/>
</g>
<path fill="none" stroke-width="1.5" stroke-linecap="butt" stroke-linejoin="miter" stroke="rgb(90.196078%, 29.019608%, 9.803922%)" stroke-opacity="1" stroke-dasharray="6" stroke-miterlimit="10" d="M 442.815625 -657.000938 C 468.479687 -687.239219 501.999219 -736.297813 501.999219 -786.278281 C 501.999219 -1293.00875 501.999219 -1293.00875 501.999219 -1293.00875 C 501.999219 -1325.430625 489.159375 -1359.594688 476.366406 -1385.590781 " transform="matrix(1, 0, 0, 1, 43.2, 1735.04)"/>
<path fill-rule="nonzero" fill="rgb(90.196078%, 29.019608%, 9.803922%)" fill-opacity="1" stroke-width="1.5" stroke-linecap="butt" stroke-linejoin="miter" stroke="rgb(90.196078%, 29.019608%, 9.803922%)" stroke-opacity="1" stroke-miterlimit="10" d="M 473.632031 -1384.016563 L 472.335156 -1393.465781 L 479.241406 -1386.887656 Z M 473.632031 -1384.016563 " transform="matrix(1, 0, 0, 1, 43.2, 1735.04)"/>
<g fill="rgb(90.196078%, 29.019608%, 9.803922%)" fill-opacity="1">
<use xlink:href="#glyph-2-0" x="545.199219" y="702.59375"/>
<use xlink:href="#glyph-2-1" x="551.199219" y="702.59375"/>
<use xlink:href="#glyph-2-2" x="557.199219" y="702.59375"/>
<use xlink:href="#glyph-2-3" x="563.199219" y="702.59375"/>
<use xlink:href="#glyph-2-4" x="569.199219" y="702.59375"/>
<use xlink:href="#glyph-2-5" x="575.199219" y="702.59375"/>
<use xlink:href="#glyph-2-6" x="580.449219" y="702.59375"/>
<use xlink:href="#glyph-2-0" x="584.199219" y="702.59375"/>
<use xlink:href="#glyph-2-7" x="590.199219" y="702.59375"/>
</g>
<path fill-rule="nonzero" fill="rgb(100%, 95.294118%, 87.843137%)" fill-opacity="1" stroke-width="1.8" stroke-linecap="butt" stroke-linejoin="miter" stroke="rgb(7.843137%, 21.176471%, 25.882353%)" stroke-opacity="1" stroke-miterlimit="10" d="M 530.749219 -517.329063 C 530.749219 -517.329063 403.249219 -517.329063 403.249219 -517.329063 C 397.249219 -517.329063 391.249219 -511.329063 391.249219 -505.329063 C 391.249219 -505.329063 391.249219 -493.329063 391.249219 -493.329063 C 391.249219 -487.329063 397.249219 -481.329063 403.249219 -481.329063 C 403.249219 -481.329063 530.749219 -481.329063 530.749219 -481.329063 C 536.749219 -481.329063 542.749219 -487.329063 542.749219 -493.329063 C 542.749219 -493.329063 542.749219 -505.329063 542.749219 -505.329063 C 542.749219 -511.329063 536.749219 -517.329063 530.749219 -517.329063 " transform="matrix(1, 0, 0, 1, 43.2, 1735.04)"/>
<g fill="rgb(21.568627%, 13.333333%, 21.568627%)" fill-opacity="1">
<use xlink:href="#glyph-0-28" x="452.449219" y="1239.808594"/>
<use xlink:href="#glyph-0-7" x="461.449219" y="1239.808594"/>
<use xlink:href="#glyph-0-2" x="466.699219" y="1239.808594"/>
<use xlink:href="#glyph-0-3" x="470.449219" y="1239.808594"/>
<use xlink:href="#glyph-0-2" x="475.699219" y="1239.808594"/>
<use xlink:href="#glyph-0-16" x="479.449219" y="1239.808594"/>
<use xlink:href="#glyph-0-2" x="486.949219" y="1239.808594"/>
<use xlink:href="#glyph-0-5" x="490.699219" y="1239.808594"/>
<use xlink:href="#glyph-0-9" x="497.449219" y="1239.808594"/>
<use xlink:href="#glyph-0-4" x="505.699219" y="1239.808594"/>
<use xlink:href="#glyph-0-10" x="510.199219" y="1239.808594"/>
<use xlink:href="#glyph-0-1" x="518.449219" y="1239.808594"/>
<use xlink:href="#glyph-0-3" x="526.699219" y="1239.808594"/>
<use xlink:href="#glyph-0-10" x="531.949219" y="1239.808594"/>
<use xlink:href="#glyph-0-11" x="540.199219" y="1239.808594"/>
<use xlink:href="#glyph-0-10" x="543.949219" y="1239.808594"/>
<use xlink:href="#glyph-0-14" x="552.199219" y="1239.808594"/>
<use xlink:href="#glyph-0-15" x="560.449219" y="1239.808594"/>
</g>
<path fill="none" stroke-width="1.5" stroke-linecap="butt" stroke-linejoin="miter" stroke="rgb(55.294118%, 43.137255%, 38.823529%)" stroke-opacity="1" stroke-miterlimit="10" d="M 429.046094 -589.415 C 437.296094 -570.051719 447.382031 -546.379844 455.08125 -528.309531 " transform="matrix(1, 0, 0, 1, 43.2, 1735.04)"/>
<path fill-rule="nonzero" fill="rgb(55.294118%, 43.137255%, 38.823529%)" fill-opacity="1" stroke-width="1.5" stroke-linecap="butt" stroke-linejoin="miter" stroke="rgb(55.294118%, 43.137255%, 38.823529%)" stroke-opacity="1" stroke-miterlimit="10" d="M 457.897656 -529.731406 L 458.526562 -520.215781 L 452.100781 -527.262656 Z M 457.897656 -529.731406 " transform="matrix(1, 0, 0, 1, 43.2, 1735.04)"/>
<path fill="none" stroke-width="1.5" stroke-linecap="butt" stroke-linejoin="miter" stroke="rgb(90.196078%, 29.019608%, 9.803922%)" stroke-opacity="1" stroke-dasharray="6" stroke-miterlimit="10" d="M 460.839062 -480.704063 C 453.151562 -457.098594 440.999219 -413.770469 440.999219 -375.680625 C 440.999219 -375.680625 440.999219 -375.680625 440.999219 -131.750938 C 440.999219 -103.375938 440.999219 -70.985313 440.999219 -48.223594 " transform="matrix(1, 0, 0, 1, 43.2, 1735.04)"/>
<path fill-rule="nonzero" fill="rgb(90.196078%, 29.019608%, 9.803922%)" fill-opacity="1" stroke-width="1.5" stroke-linecap="butt" stroke-linejoin="miter" stroke="rgb(90.196078%, 29.019608%, 9.803922%)" stroke-opacity="1" stroke-miterlimit="10" d="M 444.151562 -48.235313 L 440.999219 -39.235313 L 437.850781 -48.235313 Z M 444.151562 -48.235313 " transform="matrix(1, 0, 0, 1, 43.2, 1735.04)"/>
<g fill="rgb(90.196078%, 29.019608%, 9.803922%)" fill-opacity="1">
<use xlink:href="#glyph-2-5" x="484.199219" y="1495.273438"/>
<use xlink:href="#glyph-2-4" x="489.449219" y="1495.273438"/>
<use xlink:href="#glyph-2-11" x="495.449219" y="1495.273438"/>
<use xlink:href="#glyph-2-11" x="500.699219" y="1495.273438"/>
<use xlink:href="#glyph-2-0" x="505.949219" y="1495.273438"/>
<use xlink:href="#glyph-2-5" x="511.949219" y="1495.273438"/>
<use xlink:href="#glyph-2-5" x="517.199219" y="1495.273438"/>
</g>
<path fill-rule="nonzero" fill="rgb(100%, 95.294118%, 87.843137%)" fill-opacity="1" stroke-width="1.8" stroke-linecap="butt" stroke-linejoin="miter" stroke="rgb(7.843137%, 21.176471%, 25.882353%)" stroke-opacity="1" stroke-miterlimit="10" d="M 617.354687 -399.684531 C 617.354687 -399.684531 528.475781 -377.575156 528.475781 -377.575156 C 522.651562 -376.129844 522.651562 -373.231406 528.475781 -371.782188 C 528.475781 -371.782188 617.354687 -349.676719 617.354687 -349.676719 C 623.178906 -348.2275 634.823437 -348.2275 640.64375 -349.676719 C 640.64375 -349.676719 729.526562 -371.782188 729.526562 -371.782188 C 735.346875 -373.231406 735.346875 -376.129844 729.526562 -377.575156 C 729.526562 -377.575156 640.64375 -399.684531 640.64375 -399.684531 C 634.823437 -401.129844 623.178906 -401.129844 617.354687 -399.684531 " transform="matrix(1, 0, 0, 1, 43.2, 1735.04)"/>
<g fill="rgb(21.568627%, 13.333333%, 21.568627%)" fill-opacity="1">
<use xlink:href="#glyph-1-14" x="629.074219" y="1364.058594"/>
<use xlink:href="#glyph-1-2" x="632.074219" y="1364.058594"/>
<use xlink:href="#glyph-1-14" x="638.824219" y="1364.058594"/>
<use xlink:href="#glyph-1-6" x="641.824219" y="1364.058594"/>
<use xlink:href="#glyph-1-14" x="646.324219" y="1364.058594"/>
<use xlink:href="#glyph-1-5" x="649.324219" y="1364.058594"/>
<use xlink:href="#glyph-1-6" x="656.074219" y="1364.058594"/>
<use xlink:href="#glyph-1-1" x="660.574219" y="1364.058594"/>
<use xlink:href="#glyph-1-12" x="667.324219" y="1364.058594"/>
<use xlink:href="#glyph-1-15" x="672.574219" y="1364.058594"/>
<use xlink:href="#glyph-1-1" x="678.574219" y="1364.058594"/>
<use xlink:href="#glyph-1-5" x="685.324219" y="1364.058594"/>
<use xlink:href="#glyph-1-0" x="692.074219" y="1364.058594"/>
<use xlink:href="#glyph-1-16" x="696.574219" y="1364.058594"/>
<use xlink:href="#glyph-1-17" x="702.574219" y="1364.058594"/>
<use xlink:href="#glyph-1-18" x="709.324219" y="1364.058594"/>
</g>
<path fill="none" stroke-width="1.5" stroke-linecap="butt" stroke-linejoin="miter" stroke="rgb(90.196078%, 29.019608%, 9.803922%)" stroke-opacity="1" stroke-dasharray="6" stroke-miterlimit="10" d="M 490.557812 -480.497031 C 517.311719 -460.239219 561.3 -426.938438 592.503125 -403.309531 " transform="matrix(1, 0, 0, 1, 43.2, 1735.04)"/>
<path fill-rule="nonzero" fill="rgb(90.196078%, 29.019608%, 9.803922%)" fill-opacity="1" stroke-width="1.5" stroke-linecap="butt" stroke-linejoin="miter" stroke="rgb(90.196078%, 29.019608%, 9.803922%)" stroke-opacity="1" stroke-miterlimit="10" d="M 594.260937 -405.934531 L 599.534375 -397.989219 L 590.45625 -400.911094 Z M 594.260937 -405.934531 " transform="matrix(1, 0, 0, 1, 43.2, 1735.04)"/>
<g fill="rgb(90.196078%, 29.019608%, 9.803922%)" fill-opacity="1">
<use xlink:href="#glyph-2-8" x="591.199219" y="1296.210938"/>
<use xlink:href="#glyph-2-3" x="594.949219" y="1296.210938"/>
<use xlink:href="#glyph-2-9" x="600.949219" y="1296.210938"/>
<use xlink:href="#glyph-2-10" x="603.949219" y="1296.210938"/>
</g>
<path fill="none" stroke-width="1.5" stroke-linecap="butt" stroke-linejoin="miter" stroke="rgb(90.196078%, 29.019608%, 9.803922%)" stroke-opacity="1" stroke-dasharray="6" stroke-miterlimit="10" d="M 628.999219 -403.44625 C 628.999219 -428.305625 628.999219 -465.750938 628.999219 -498.329063 C 628.999219 -1293.00875 628.999219 -1293.00875 628.999219 -1293.00875 C 628.999219 -1349.672813 571.389844 -1385.930625 521.717969 -1406.661094 " transform="matrix(1, 0, 0, 1, 43.2, 1735.04)"/>
<path fill-rule="nonzero" fill="rgb(90.196078%, 29.019608%, 9.803922%)" fill-opacity="1" stroke-width="1.5" stroke-linecap="butt" stroke-linejoin="miter" stroke="rgb(90.196078%, 29.019608%, 9.803922%)" stroke-opacity="1" stroke-miterlimit="10" d="M 520.553906 -1403.731406 L 513.370312 -1410.004844 L 522.897656 -1409.579063 Z M 520.553906 -1403.731406 " transform="matrix(1, 0, 0, 1, 43.2, 1735.04)"/>
<g fill="rgb(90.196078%, 29.019608%, 9.803922%)" fill-opacity="1">
<use xlink:href="#glyph-2-12" x="672.199219" y="812.734375"/>
<use xlink:href="#glyph-2-13" x="678.199219" y="812.734375"/>
</g>
<path fill-rule="nonzero" fill="rgb(100%, 95.294118%, 87.843137%)" fill-opacity="1" stroke-width="1.8" stroke-linecap="butt" stroke-linejoin="miter" stroke="rgb(7.843137%, 21.176471%, 25.882353%)" stroke-opacity="1" stroke-miterlimit="10" d="M 670.749219 -268.028281 C 670.749219 -268.028281 567.249219 -268.028281 567.249219 -268.028281 C 561.249219 -268.028281 555.249219 -262.028281 555.249219 -256.028281 C 555.249219 -256.028281 555.249219 -229.750938 555.249219 -229.750938 C 555.249219 -223.750938 561.249219 -217.750938 567.249219 -217.750938 C 567.249219 -217.750938 670.749219 -217.750938 670.749219 -217.750938 C 676.749219 -217.750938 682.749219 -223.750938 682.749219 -229.750938 C 682.749219 -229.750938 682.749219 -256.028281 682.749219 -256.028281 C 682.749219 -262.028281 676.749219 -268.028281 670.749219 -268.028281 " transform="matrix(1, 0, 0, 1, 43.2, 1735.04)"/>
<g fill="rgb(21.568627%, 13.333333%, 21.568627%)" fill-opacity="1">
<use xlink:href="#glyph-0-22" x="621.324219" y="1488"/>
<use xlink:href="#glyph-0-11" x="628.824219" y="1488"/>
<use xlink:href="#glyph-0-6" x="632.574219" y="1488"/>
<use xlink:href="#glyph-0-1" x="640.824219" y="1488"/>
<use xlink:href="#glyph-0-4" x="649.074219" y="1488"/>
<use xlink:href="#glyph-0-23" x="653.574219" y="1488"/>
<use xlink:href="#glyph-0-4" x="664.824219" y="1488"/>
<use xlink:href="#glyph-0-24" x="669.324219" y="1488"/>
<use xlink:href="#glyph-0-9" x="673.824219" y="1488"/>
<use xlink:href="#glyph-0-3" x="682.074219" y="1488"/>
<use xlink:href="#glyph-0-16" x="687.324219" y="1488"/>
<use xlink:href="#glyph-0-20" x="694.824219" y="1488"/>
</g>
<g fill="rgb(21.568627%, 13.333333%, 21.568627%)" fill-opacity="1">
<use xlink:href="#glyph-0-25" x="616.449219" y="1504.5"/>
<use xlink:href="#glyph-0-9" x="626.949219" y="1504.5"/>
<use xlink:href="#glyph-0-26" x="635.199219" y="1504.5"/>
<use xlink:href="#glyph-0-4" x="643.449219" y="1504.5"/>
<use xlink:href="#glyph-0-9" x="647.949219" y="1504.5"/>
<use xlink:href="#glyph-0-12" x="656.199219" y="1504.5"/>
<use xlink:href="#glyph-0-2" x="663.699219" y="1504.5"/>
<use xlink:href="#glyph-0-18" x="667.449219" y="1504.5"/>
<use xlink:href="#glyph-0-9" x="675.699219" y="1504.5"/>
<use xlink:href="#glyph-0-1" x="683.949219" y="1504.5"/>
<use xlink:href="#glyph-0-16" x="692.199219" y="1504.5"/>
<use xlink:href="#glyph-0-9" x="699.699219" y="1504.5"/>
</g>
<path fill="none" stroke-width="1.5" stroke-linecap="butt" stroke-linejoin="miter" stroke="rgb(90.196078%, 29.019608%, 9.803922%)" stroke-opacity="1" stroke-dasharray="6" stroke-miterlimit="10" d="M 626.905469 -346.473594 C 625.417187 -327.153281 623.401562 -301.020469 621.780469 -279.961875 " transform="matrix(1, 0, 0, 1, 43.2, 1735.04)"/>
<path fill-rule="nonzero" fill="rgb(90.196078%, 29.019608%, 9.803922%)" fill-opacity="1" stroke-width="1.5" stroke-linecap="butt" stroke-linejoin="miter" stroke="rgb(90.196078%, 29.019608%, 9.803922%)" stroke-opacity="1" stroke-miterlimit="10" d="M 624.928906 -279.860313 L 621.096875 -271.129844 L 618.647656 -280.344688 Z M 624.928906 -279.860313 " transform="matrix(1, 0, 0, 1, 43.2, 1735.04)"/>
<g fill="rgb(90.196078%, 29.019608%, 9.803922%)" fill-opacity="1">
<use xlink:href="#glyph-2-14" x="667.5" y="1430.761719"/>
<use xlink:href="#glyph-2-0" x="673.5" y="1430.761719"/>
<use xlink:href="#glyph-2-5" x="679.5" y="1430.761719"/>
</g>
<path fill-rule="nonzero" fill="rgb(100%, 95.294118%, 87.843137%)" fill-opacity="1" stroke-width="1.8" stroke-linecap="butt" stroke-linejoin="miter" stroke="rgb(7.843137%, 21.176471%, 25.882353%)" stroke-opacity="1" stroke-miterlimit="10" d="M 676.499219 -150.750938 C 676.499219 -150.750938 529.499219 -150.750938 529.499219 -150.750938 C 523.499219 -150.750938 517.499219 -144.750938 517.499219 -138.750938 C 517.499219 -138.750938 517.499219 -126.750938 517.499219 -126.750938 C 517.499219 -120.750938 523.499219 -114.750938 529.499219 -114.750938 C 529.499219 -114.750938 676.499219 -114.750938 676.499219 -114.750938 C 682.499219 -114.750938 688.499219 -120.750938 688.499219 -126.750938 C 688.499219 -126.750938 688.499219 -138.750938 688.499219 -138.750938 C 688.499219 -144.750938 682.499219 -150.750938 676.499219 -150.750938 " transform="matrix(1, 0, 0, 1, 43.2, 1735.04)"/>
<g fill="rgb(21.568627%, 13.333333%, 21.568627%)" fill-opacity="1">
<use xlink:href="#glyph-0-8" x="578.699219" y="1606.390625"/>
<use xlink:href="#glyph-0-9" x="586.949219" y="1606.390625"/>
<use xlink:href="#glyph-0-27" x="595.199219" y="1606.390625"/>
<use xlink:href="#glyph-0-16" x="599.699219" y="1606.390625"/>
<use xlink:href="#glyph-0-7" x="607.199219" y="1606.390625"/>
<use xlink:href="#glyph-0-2" x="612.449219" y="1606.390625"/>
<use xlink:href="#glyph-0-3" x="616.199219" y="1606.390625"/>
<use xlink:href="#glyph-0-2" x="621.449219" y="1606.390625"/>
<use xlink:href="#glyph-0-16" x="625.199219" y="1606.390625"/>
<use xlink:href="#glyph-0-2" x="632.699219" y="1606.390625"/>
<use xlink:href="#glyph-0-5" x="636.449219" y="1606.390625"/>
<use xlink:href="#glyph-0-9" x="643.199219" y="1606.390625"/>
<use xlink:href="#glyph-0-4" x="651.449219" y="1606.390625"/>
<use xlink:href="#glyph-0-10" x="655.949219" y="1606.390625"/>
<use xlink:href="#glyph-0-1" x="664.199219" y="1606.390625"/>
<use xlink:href="#glyph-0-3" x="672.449219" y="1606.390625"/>
<use xlink:href="#glyph-0-10" x="677.699219" y="1606.390625"/>
<use xlink:href="#glyph-0-11" x="685.949219" y="1606.390625"/>
<use xlink:href="#glyph-0-10" x="689.699219" y="1606.390625"/>
<use xlink:href="#glyph-0-14" x="697.949219" y="1606.390625"/>
<use xlink:href="#glyph-0-15" x="706.199219" y="1606.390625"/>
</g>
<path fill="none" stroke-width="1.5" stroke-linecap="butt" stroke-linejoin="miter" stroke="rgb(55.294118%, 43.137255%, 38.823529%)" stroke-opacity="1" stroke-miterlimit="10" d="M 615.327344 -217.079063 C 612.917187 -200.766563 609.749219 -179.368125 607.229687 -162.336875 " transform="matrix(1, 0, 0, 1, 43.2, 1735.04)"/>
<path fill-rule="nonzero" fill="rgb(55.294118%, 43.137255%, 38.823529%)" fill-opacity="1" stroke-width="1.5" stroke-linecap="butt" stroke-linejoin="miter" stroke="rgb(55.294118%, 43.137255%, 38.823529%)" stroke-opacity="1" stroke-miterlimit="10" d="M 610.370312 -162.051719 L 605.936719 -153.610313 L 604.139844 -162.973594 Z M 610.370312 -162.051719 " transform="matrix(1, 0, 0, 1, 43.2, 1735.04)"/>
<path fill="none" stroke-width="1.5" stroke-linecap="butt" stroke-linejoin="miter" stroke="rgb(90.196078%, 29.019608%, 9.803922%)" stroke-opacity="1" stroke-dasharray="6" stroke-miterlimit="10" d="M 577.33125 -113.88375 C 550.003125 -94.864219 506.577344 -64.641563 476.096875 -43.426719 " transform="matrix(1, 0, 0, 1, 43.2, 1735.04)"/>
<path fill-rule="nonzero" fill="rgb(90.196078%, 29.019608%, 9.803922%)" fill-opacity="1" stroke-width="1.5" stroke-linecap="butt" stroke-linejoin="miter" stroke="rgb(90.196078%, 29.019608%, 9.803922%)" stroke-opacity="1" stroke-miterlimit="10" d="M 478.135937 -41.00875 L 468.948437 -38.454063 L 474.538281 -46.180625 Z M 478.135937 -41.00875 " transform="matrix(1, 0, 0, 1, 43.2, 1735.04)"/>
<g fill="rgb(90.196078%, 29.019608%, 9.803922%)" fill-opacity="1">
<use xlink:href="#glyph-2-5" x="570.058594" y="1662.789062"/>
<use xlink:href="#glyph-2-4" x="575.308594" y="1662.789062"/>
<use xlink:href="#glyph-2-11" x="581.308594" y="1662.789062"/>
<use xlink:href="#glyph-2-11" x="586.558594" y="1662.789062"/>
<use xlink:href="#glyph-2-0" x="591.808594" y="1662.789062"/>
<use xlink:href="#glyph-2-5" x="597.808594" y="1662.789062"/>
<use xlink:href="#glyph-2-5" x="603.058594" y="1662.789062"/>
</g>
<path fill="none" stroke-width="1.5" stroke-linecap="butt" stroke-linejoin="miter" stroke="rgb(90.196078%, 29.019608%, 9.803922%)" stroke-opacity="1" stroke-dasharray="6" stroke-miterlimit="10" d="M 516.979687 -148.879844 C 432.116406 -166.325156 314.999219 -198.293906 314.999219 -241.891563 C 314.999219 -500.329063 314.999219 -500.329063 314.999219 -500.329063 C 314.999219 -536.661094 341.171094 -568.516563 366.600781 -590.895469 " transform="matrix(1, 0, 0, 1, 43.2, 1735.04)"/>
<path fill-rule="nonzero" fill="rgb(90.196078%, 29.019608%, 9.803922%)" fill-opacity="1" stroke-width="1.5" stroke-linecap="butt" stroke-linejoin="miter" stroke="rgb(90.196078%, 29.019608%, 9.803922%)" stroke-opacity="1" stroke-miterlimit="10" d="M 364.510937 -593.254844 L 373.421094 -596.649375 L 368.573437 -588.438438 Z M 364.510937 -593.254844 " transform="matrix(1, 0, 0, 1, 43.2, 1735.04)"/>
<g fill="rgb(90.196078%, 29.019608%, 9.803922%)" fill-opacity="1">
<use xlink:href="#glyph-2-8" x="358.199219" y="1363.484375"/>
<use xlink:href="#glyph-2-3" x="361.949219" y="1363.484375"/>
<use xlink:href="#glyph-2-9" x="367.949219" y="1363.484375"/>
<use xlink:href="#glyph-2-10" x="370.949219" y="1363.484375"/>
</g>
</svg>
